<?xml version="1.0" encoding="utf-8"?>
<!-- Generator: Adobe Illustrator 19.1.0, SVG Export Plug-In . SVG Version: 6.00 Build 0)  -->
<svg version="1.1" id="Layer_1" xmlns="http://www.w3.org/2000/svg" xmlns:xlink="http://www.w3.org/1999/xlink" x="0px" y="0px"
	 width="140px" height="140px" viewBox="-79 81 140 140" style="enable-background:new -79 81 140 140;" xml:space="preserve">
<style type="text/css">
	.st0{fill:#5C8627;}
	.st1{fill:#7968AD;}
	.st2{fill:#DE396E;}
	.st3{fill:#53BCEB;}
	.st4{fill:#C31230;}
	.st5{fill:#F69F1A;}
	.st6{fill:#005287;}
	.st7{fill:#005387;stroke:#005287;stroke-width:0.4016;}
	.st8{fill:#FFFFFF;}
</style>
<path class="st0" d="M-74.5,125.4h24.2v11.9h-24.2V125.4z"/>
<path class="st1" d="M-20.7,117.7h16.4v13.5h-16.4L-20.7,117.7z"/>
<path class="st2" d="M-50.3,165.9h10v7.7h-10V165.9z M-40.3,137.2v-6.1h14.6V112h-24.6v25.2H-40.3z"/>
<path class="st3" d="M-40.3,165.9v16.4h35.9v-16.4H-40.3z M-40.3,137.2h35.9v-6.1h-35.9L-40.3,137.2z"/>
<path class="st4" d="M17,122.2h37.4v15.2H17L17,122.2z M17,165.9h37.4v12.9H17L17,165.9z"/>
<path class="st5" d="M-4.3,137.2H17v-29.6H-4.3v23.5V137.2z M-4.3,165.9v28.4H17v-28.4H-4.3z"/>
<path class="st6" d="M17,137.2h-98v28.7H61v-28.7C61,137.2,17,137.2,17,137.2z M-51.2,160.1h-2.3v-14.3l-5.9,14.3H-61l-5.9-14.3
	v14.3h-2.3v-17.4h3.5l5.5,13.2h0.1l5.5-13.2h3.5C-51.2,142.7-51.2,160.1-51.2,160.1z M-37.1,155.1h-9.3c0,2,1.9,3.3,3.9,3.3
	c1.3,0,2.3-0.7,3.2-1.7l1.7,1.3c-1.2,1.6-2.9,2.3-5.2,2.3c-3.6,0-5.9-2.6-5.9-6.1c0-3.5,2.5-6.1,6.1-6.1c4.1,0,5.7,3.2,5.7,6.1
	C-37,154.2-37.1,155.1-37.1,155.1z M-23.3,160.1h-6.2c-3.6,0-5.9-2.3-5.9-5.8s2.3-6.1,5.9-6.1c1.7,0,3.3,0.7,4.1,2v-7.4h2.2
	C-23.3,142.9-23.3,160.1-23.3,160.1z M-18.3,160.1h-2.2v-11.6h2.2V160.1z M-18.3,146.7h-2.2v-2.2h2.2V146.7z M-5.8,158v2.2h-6.1
	c-2.2,0-4.1-0.9-4.1-3.2c0-3,2.9-4.1,6.4-4.1H-8v-0.4c0-1.2-0.9-2.5-2.8-2.5c-1.7,0-2.5,0.7-3.3,1.3l-1.3-1.3c1.2-1.2,3-1.7,4.6-1.7
	c3.5,0,4.9,1.9,4.9,3.9C-5.8,152.2-5.8,158-5.8,158z M15.2,160.1h-2.3v-14.3L7,160.1H5.4l-5.8-14.3v14.3h-2.3v-17.4h3.5l5.5,13.2
	h0.1l5.5-13.2h3.5L15.2,160.1L15.2,160.1z M27.1,158v2.2H21c-2.2,0-4.1-0.9-4.1-3.2c0-3,2.9-4.1,6.4-4.1h1.6v-0.4
	c0-1.2-0.9-2.5-2.8-2.5c-1.7,0-2.5,0.7-3.3,1.3l-1.3-1.3c1.2-1.2,3-1.7,4.6-1.7c3.5,0,4.9,1.9,4.9,3.9C27.1,152.2,27.1,158,27.1,158
	z M36.8,160c-0.6,0.3-1.6,0.4-2,0.4c-3.5,0-3.5-2-3.5-3.9v-6.1h-2.6v-1.9h2.6v-3.3h2.2v3.3h3.2v1.9h-3.2v5.2c0,1.3,0,2.6,1.6,2.6
	c0.6,0,1.2-0.1,1.6-0.3v2L36.8,160L36.8,160z M49.3,160.1h-2.2v-6.8c0-2.2-1.3-3-2.6-3c-1.9,0-3.2,1.2-3.2,3.9v5.9h-2.2v-17.4h2.2
	v5.5h3.8c2.3,0,4.2,1.3,4.2,4.5V160.1z"/>
<path class="st7" d="M-42.7,150c-2.2,0-3.6,1.9-3.6,3.3h7C-39.4,151.4-40.6,150-42.7,150z M-13.8,156.8c0,1.3,1,1.9,2.5,1.9
	c2.5,0,3.3-1.9,3.3-3.3v-0.7h-1.2C-11.2,154.5-13.8,154.9-13.8,156.8z M-29.4,150.3c-2.3,0-3.8,1.7-3.8,4.1s1.4,4.1,3.8,4.1
	s3.8-1.7,3.8-4.1S-27.1,150.3-29.4,150.3z M19.3,156.8c0,1.3,1,1.9,2.5,1.9c2.5,0,3.3-1.9,3.3-3.3v-0.7h-1.2
	C21.9,154.5,19.3,154.9,19.3,156.8z"/>
<path class="st8" d="M-60.1,155.9h-0.1l-5.5-13.2h-3.5v17.4h2.3v-14.3l5.9,14.3h1.6l5.8-14.3v14.3h2.5v-17.4h-3.6L-60.1,155.9z
	 M-42.7,148.2c-3.5,0-6.1,2.6-6.1,6.1c0,3.5,2.3,6.1,5.9,6.1c2.2,0,3.9-0.7,5.2-2.3l-1.6-1.3c-0.9,1-1.9,1.7-3.2,1.7
	c-2,0-3.9-1.3-3.9-3.3h9.3v-0.7C-37.1,151.3-38.7,148.2-42.7,148.2L-42.7,148.2z M-46.4,153.3c0-1.6,1.4-3.3,3.6-3.3
	s3.3,1.4,3.3,3.3H-46.4z M-25.6,150.1c-0.9-1.2-2.5-2-4.1-2c-3.6,0-5.9,2.6-5.9,6.1c0,3.5,2.3,5.8,5.9,5.8h6.2v-17.4h-2.2
	C-25.6,142.6-25.6,150.1-25.6,150.1z M-29.4,158.4c-2.3,0-3.8-1.7-3.8-4.1c0-2.3,1.4-4.1,3.8-4.1s3.8,1.7,3.8,4.1
	S-27.1,158.4-29.4,158.4z M-20.4,148.5h2.2v11.6h-2.2V148.5z M-10.7,148.2c-1.6,0-3.3,0.6-4.6,1.7l1.3,1.4c0.9-0.6,1.6-1.3,3.3-1.3
	c1.9,0,2.8,1.3,2.8,2.5v0.4h-1.6c-3.5,0-6.4,1-6.4,4.1c0,2.3,1.9,3.2,4.1,3.2h6.1v-8.1C-5.8,150.1-7.2,148.2-10.7,148.2z M-8,155.2
	c0,1.6-0.9,3.3-3.3,3.3c-1.6,0-2.5-0.6-2.5-1.9c0-1.9,2.6-2.2,4.6-2.2H-8V155.2z M22.3,148.2c-1.6,0-3.3,0.6-4.6,1.7l1.3,1.3
	c0.9-0.6,1.6-1.3,3.3-1.3c1.9,0,2.8,1.3,2.8,2.5v0.4h-1.6c-3.5,0-6.4,1-6.4,4.1c0,2.3,1.9,3.2,4.1,3.2h6.1V152
	C27.1,150.1,25.6,148.2,22.3,148.2z M25.1,155.2c0,1.6-0.9,3.3-3.3,3.3c-1.6,0-2.5-0.6-2.5-1.9c0-1.9,2.6-2.2,4.6-2.2h1.2V155.2z
	 M6.2,155.9l-5.5-13.2h-3.6v17.4h2.5v-14.3l5.9,14.3H7l5.9-14.3v14.3h2.3v-17.4h-3.5L6.2,155.9z M33.6,155.6v-5.2h3.2v-1.9h-3.2
	v-3.3h-2.2v3.3h-2.6v1.9h2.6v6.1c0,1.9,0,3.9,3.5,3.9c0.4,0,1.4-0.1,2-0.4v-2c-0.4,0.3-1,0.3-1.6,0.3
	C33.6,158.4,33.6,156.9,33.6,155.6L33.6,155.6z M45.1,148.2h-3.8v-5.5h-2.2v17.4h2.2v-5.9c0-2.8,1.4-3.9,3.2-3.9
	c1.4,0,2.6,0.9,2.6,3v6.8h2.2v-7.5C49.3,149.6,47.4,148.2,45.1,148.2z M-20.4,144.5h2.2v2.2h-2.2V144.5z"/>
</svg>
