<?xml version="1.0" encoding="utf-8"?>
<!-- Generator: Adobe Illustrator 19.1.0, SVG Export Plug-In . SVG Version: 6.00 Build 0)  -->
<svg version="1.1" id="Layer_1" xmlns="http://www.w3.org/2000/svg" xmlns:xlink="http://www.w3.org/1999/xlink" x="0px" y="0px"
	 width="138px" height="50px" viewBox="131 126 138 50" style="enable-background:new 131 126 138 50;" xml:space="preserve">
<style type="text/css">
	.st0{fill:#9FA4A6;}
</style>
<title>TED logo</title>
<g>
	<path class="st0" d="M246.5,126c16.6,0.1,22.5,12.4,22.5,25c0,15.3-8.1,25-25.5,25H221v-50H246.5z M242.7,163.2
		c9.6,0,11-7.8,11-12.4c0-3.1-1-11.9-12.1-11.9h-4.9v24.3H242.7z"/>
	<path class="st0" d="M176,126h43v12.9h-26v5.1h26v14h-26v5h26v13h-43V126z"/>
	<path class="st0" d="M144.1,138.9H131V126h43v12.9h-13V176h-16.9V138.9z"/>
</g>
</svg>
