<svg xmlns="http://www.w3.org/2000/svg" width="400" height="400" viewBox="0 0 400 400"><path d="M246.2 359c-4.6 0-7.7-1.7-9.6-3.2-3.3-2.7-5.1-6.8-5.1-11.4v-8.7c.1-8 .1-20.1.1-34 0-15-5.7-21.5-8.2-23.7l-11.9-10.2 15.6-1.7c32.2-3.6 65-14.7 65-70.1 0-14.4-4.8-26.9-14.2-37.2l-2.9-3.2 1.6-4c1.4-3.5 5.3-15.4-.1-32.2-4.8.4-15.9 2.8-34 15.1l-2.6 1.8-3-.8c-11.6-3.2-24.4-4.9-37.2-5-12.7.1-25.6 1.8-37.1 5l-3 .8-2.6-1.8c-18.1-12.2-29.1-14.7-34.1-15.1-5.4 16.7-1.5 28.7-.1 32.1l1.6 4-2.9 3.2c-9.4 10.3-14.2 22.8-14.2 37.2 0 55.4 32.8 66.5 64.9 70.2l15.3 1.7-11.6 10.2c-2.3 2-6.2 6.8-7.6 16.6l-.5 3.7-3.4 1.5c-8.3 3.7-36.9 13.7-54-15.7-.1-.1-1.2-2.1-3.3-4.5 2.7 3.7 5.5 8.6 7.9 14.7l.2.5c.3.9 8.2 24.1 44.5 16.2l8.2-1.8v8.4c0 7 .1 13.1.1 17.8 0 4 .1 7 .1 8.7 0 4.5-1.9 8.6-5.1 11.3-2.4 2-6.8 4.2-13.6 2.9l-.9-.2C81.8 336.3 37.1 274.3 37.1 204.2c0-89.6 72.9-162.6 162.5-162.6s162.6 72.9 162.6 162.6c0 70.1-44.6 132-111.1 154.2l-.9.2c-1.4.3-2.8.4-4 .4zm-6-81c3.3 6.6 5.1 14.7 5.1 23.7 0 13.9-.1 26.1-.1 34.1v8.6c0 .5.1.8.2.9.1 0 .8.2 2 0 60.6-20.4 101.3-77.1 101.3-141.1 0-82.1-66.8-148.9-148.9-148.9-82.1 0-148.9 66.8-148.9 148.9 0 64.1 40.7 120.7 101.3 141.1 1.2.2 1.9 0 2-.1 0 0 .2-.3.2-.8 0-1.7 0-4.6-.1-8.6 0-2.8-.1-6.1-.1-9.8-33.1 4-48.5-15-52.1-26.7-5.8-14.6-13.7-18.8-13.7-18.9l-1-.5c-3-2-10.9-7.5-8.6-14.8 2.1-6.6 10.2-7.2 13.6-7.2h.4c19.1 1.3 28.9 18.8 29.4 19.6 9.5 16.2 23.8 14.7 33.3 11.3.8-3.9 2.1-7.5 3.7-10.8-30.9-5.6-65.5-22.4-65.5-82.1 0-16.5 5.1-31 15.1-43.3-2.2-7.7-4.7-23.1 2.9-42.2l1.2-3 3.1-1c2.6-.8 17-4 46.1 15.1 12-3 24.7-4.6 37.7-4.7 13.1.1 25.8 1.6 37.8 4.7 29.2-19 43.5-15.9 46.1-15.1l3.1 1 1.2 3c7.6 19.1 5.2 34.5 2.9 42.2 10 12.3 15.1 26.8 15.1 43.3-.2 59.8-34.9 76.5-65.8 82.1z"/></svg>