<svg xmlns="http://www.w3.org/2000/svg" width="400" height="400" viewBox="0 0 400 400"><path fill="none" d="M199.3 232.8c-10.4-4.5-17.2-14.7-17.2-26.1 0-6.4 1.9-12.8 6.1-17.6 4.5-5.1 9.8-15.3 9.8-35 8.4 0 13.3-18.6 8.2-27.3-3.3-5.7-4.3-12.3-2.2-18.5 2.5-7.2 4.3-16.3 1.9-25.7-4.3-17.3-30.9-26.9-55.4-26.9-20.5 0-39.7 6.7-43.3 21.2-16.2 4-13.9 19-10 30.8 2.2 6.5 1 13.3-2.6 19.1-5.4 8.7-.5 27.4 7.9 27.4 0 19.7 5.3 29.9 9.8 35 4.2 4.8 6.1 11.2 6.1 17.6 0 11.4-6.8 21.6-17.2 26.1C66.2 248 31 266.5 31 273.3v43.2c0 15.7 12.7 28.4 28.4 28.4h181.7c15.7 0 28.4-12.7 28.4-28.4v-43.2c.1-6.8-35.1-25.3-70.2-40.5z"/><path d="M331.1 261.2c-.3-.2-.5-.4-1.1-.8-3-1.7-3.9-5-4-8.5 3.9-4.6 7.7-11.9 8.9-23.4 4.5-4.9 7-12.2 7-19.3 0-5-1.2-9.6-3.5-13.2 0 0 0-.1-.1-.1 2.2-6.3 4.1-15 1.7-24.5-4.8-19-28-27.6-48.9-27.6-17.9 0-31.8 6.3-38.1 16.8-4.8 2.7-7.5 6.4-9.1 9.4-4.4 8.7-2.4 18.3.1 25.5-.1.2-.2.3-.3.5-2.4 3.7-3.7 8.4-3.7 13.4s1.3 10 3.6 14.3c6.7 3.3 12.6 6.5 17.7 9.4-.8-3.3-1.3-7.1-1.3-12-7.2 0-10.3-20.6 0-20.6 0-3-13.8-25.3 3-29.5 2.4-9.4 14.8-13.8 28.1-13.8 15.9 0 33.2 6.2 36 17.5 3.1 12.3-4.8 23.6-4.8 25.8 10 0 6.8 20.6-.3 20.6 0 22.2-10.3 25.8-10.3 25.8v1.8c0 11.1 6.5 21.3 16.6 25.8 20.8 9.3 40.2 19.8 40.2 23.9v18c0 15.7-12.7 28.4-28.4 28.4h-43.6c0 4.9-1.4 9.4-3.7 13.3h47.3c23.1 0 41.7-18.7 41.7-41.7v-18c-.2-5.5-.3-15.4-50.7-37.2z"/><path d="M203.8 220.2c-.4-.3-.9-.6-1.8-1.1-7.1-4-5.6-15-4.1-21.1 5-5.6 10.2-14.4 12.3-28.9.6-3.9 2.1-7.6 4.4-10.7 4.5-6 6.9-14.3 6.9-22.5 0-6.3-1.5-12-4.3-16.5-.6-1-1.3-2-2.1-2.8 3.5-9 7.4-22.5 3.7-37.2-6.4-25.4-39.9-37-68.4-37-25.9 0-45.6 9-53.5 24.1-7 3.4-10.7 8.3-12.8 12.3-6.3 12.3-2 27.1 1.8 37.3-.9 1-1.8 2.1-2.5 3.3-2.9 4.6-4.5 10.4-4.5 16.8 0 8 2.4 16.2 6.8 22.2 2.3 3.2 3.9 6.9 4.5 10.8 2.2 14.7 7.5 23.7 12.6 29.2 1.5 6.2 2.8 16.9-4.1 20.8-.7.4-1.2.7-1.5.9-79.3 33.5-79.6 47.8-79.6 53.4v43.2c0 23.1 18.7 41.7 41.7 41.7h181.8c23.1 0 41.7-18.7 41.7-41.7v-43.2c.1-5.7-.1-20-79-53.3zm65.8 96.3c0 15.7-12.7 28.4-28.4 28.4H59.4c-15.7 0-28.4-12.7-28.4-28.4v-43.2c0-6.8 35.2-25.4 70.3-40.5 10.4-4.5 17.2-14.7 17.2-26.1 0-6.4-1.9-12.8-6.1-17.6-4.5-5.1-9.8-15.3-9.8-35-8.5 0-13.3-18.7-7.9-27.4 3.6-5.8 4.8-12.6 2.6-19.1-3.9-11.8-6.2-26.7 10-30.8 3.6-14.5 22.8-21.2 43.3-21.2 24.6 0 51.1 9.6 55.4 26.9 2.4 9.5.5 18.6-1.9 25.7-2.1 6.2-1.1 12.8 2.2 18.5 5.1 8.8.2 27.3-8.2 27.3 0 19.7-5.3 29.9-9.8 35-4.2 4.8-6.1 11.2-6.1 17.6 0 11.4 6.8 21.6 17.2 26.1 35.1 15.2 70.3 33.7 70.3 40.5v43.3z"/></svg>