<svg xmlns="http://www.w3.org/2000/svg" width="400" height="400" viewBox="0 0 400 400"><path d="M327.7 283.1c-34.5 16.9-79.9 26.1-127.9 26.1S106.5 300 72 283.1c-14.9-7.3-27.3-15.7-36.9-25.1-2 5.1-3.1 10.3-3.1 15.7 0 45.3 75.1 82 167.8 82s167.8-36.7 167.8-82c0-5.4-1.1-10.6-3.1-15.7-9.5 9.4-21.9 17.9-36.8 25.1z"/><path d="M199.9 288.3c92.7 0 167.8-36.7 167.8-82 0-8.1-2.5-15.9-6.9-23.4-9 7.9-20 15.2-33 21.5-34.5 16.9-79.9 26.1-127.9 26.1s-93.4-9.3-127.9-26.1c-13-6.4-24-13.6-33-21.5-4.5 7.4-6.9 15.2-6.9 23.4-.1 45.3 75.1 82 167.8 82z"/><path d="M367.7 127.7c0 45.3-75.1 82-167.8 82S32 173 32 127.7s75.1-82 167.8-82 167.9 36.8 167.9 82z"/><ellipse cx="199.9" cy="127.7" rx="167.8" ry="82"/></svg>