<svg xmlns="http://www.w3.org/2000/svg" width="400" height="400" viewBox="0 0 400 400"><path d="M297.3 207.6l64.2 113.6h-81.8V204.9M67.6 321.2V43l59 120.1v158.1M149.4 321.2v-137l107.6 17v120"/><path d="M38.1 40.1c3.4 0 6.2 2.9 6.2 6.5v302H138l-8-14.6-3.3-6.1-1.8-3.3h8V47.3c0-3 2.3-5.4 5.2-5.4 2.9 0 5.2 2.4 5.2 5.4v277.5h8l-1.8 3.3-3.3 6.1-8 14.6h130.4l-8-14.6-3.6-6.2-1.8-3.3h8V47.3c0-3 2.3-5.4 5.2-5.4 2.9 0 5.2 2.4 5.2 5.4v277.5h8l-1.8 3.3-3.3 6.1-8 14.6h93.1c3.4 0 6.2 2.9 6.2 6.5s-2.8 6.5-6.2 6.5H31.9v-315c0-3.8 2.8-6.7 6.2-6.7z"/></svg>