<svg xmlns="http://www.w3.org/2000/svg" width="400" height="400" viewBox="0 0 400 400"><path d="M86.2 342.2l3.5 22.3 101.2-15.6-28.6-7.5"/><path d="M308.1 260l-.2-1.3 46.3-167.9L306 77.5V49.3h-30.6l-1.2-7.8-50.7 7.8h-19.9l-73-20.1-5.5 20.1H74.2v23.1l-29 4.5 26 168.1-17.9 64.8 20.9 5.8v24.8h200.5l-106.7 1 95.2 26.3 13.5 3.7 8.6-31H306v-9.3l12.7-2-10.6-69.1zm26-157.9l-28 101.7V94.4l28 7.7zm-192-52.9l.2.1-.2-.1zM90.5 65.6h199.2v204.9H90.5V65.6zM74.2 88.9v69L63.8 90.5l10.4-1.6z"/><path d="M142.1 49.2v.1h.2M108.5 151.4c0 8.6 7 15.6 15.6 15.6h47c8.6 0 15.6-7 15.6-15.6v-47c0-8.6-7-15.6-15.6-15.6h-47c-8.6 0-15.6 7-15.6 15.6v47zM124 95.1h47c5.2 0 9.3 4.2 9.3 9.3v47c0 5.2-4.2 9.3-9.3 9.3h-47c-5.2 0-9.3-4.2-9.3-9.3v-47c0-5.1 4.2-9.3 9.3-9.3zM193.7 104.4v47c0 8.6 7 15.6 15.6 15.6h47c8.6 0 15.6-7 15.6-15.6v-47c0-8.6-7-15.6-15.6-15.6h-47c-8.6 0-15.6 7-15.6 15.6zm71.9 0v47c0 5.2-4.2 9.3-9.3 9.3h-47c-5.2 0-9.3-4.2-9.3-9.3v-47c0-5.2 4.2-9.3 9.3-9.3h47c5.1 0 9.3 4.2 9.3 9.3zM186.6 187.6c0-8.6-7-15.6-15.6-15.6h-47c-8.6 0-15.6 7-15.6 15.6v47c0 8.6 7 15.6 15.6 15.6h47c8.6 0 15.6-7 15.6-15.6v-47zm-71.9 47v-47c0-5.2 4.2-9.3 9.3-9.3h47c5.2 0 9.3 4.2 9.3 9.3v47c0 5.2-4.2 9.3-9.3 9.3h-47c-5.1 0-9.3-4.1-9.3-9.3zM209.2 250.2h47c8.6 0 15.6-7 15.6-15.6v-47c0-8.6-7-15.6-15.6-15.6h-47c-8.6 0-15.6 7-15.6 15.6v47c.1 8.6 7.1 15.6 15.6 15.6zm56.4-62.6v47c0 5.2-4.2 9.3-9.3 9.3h-47c-5.2 0-9.3-4.2-9.3-9.3v-47c0-5.2 4.2-9.3 9.3-9.3h47c5.1 0 9.3 4.2 9.3 9.3z"/></svg>