<?xml version="1.0" encoding="utf-8"?>
<!-- Generator: Adobe Illustrator 19.1.0, SVG Export Plug-In . SVG Version: 6.00 Build 0)  -->
<svg version="1.1" baseProfile="tiny" id="Layer_1" xmlns="http://www.w3.org/2000/svg" xmlns:xlink="http://www.w3.org/1999/xlink"
	 x="0px" y="0px" width="3200px" height="733.769px" viewBox="0 0 3200 733.769" xml:space="preserve">
<path fill-rule="evenodd" fill="#FFFFFF" d="M3200,2.769c0,219.645,0,439.355,0,659c-225.977,23.998-452.023,48.002-678,72
	c-306.969-5.666-614.031-11.334-921-17c-143.319-2.333-286.681-4.667-430-7c-89.991-1.667-180.009-3.333-270-5
	c-71.66-1.333-143.341-2.667-215-4c-17.998-0.333-36.002-0.667-54-1c-31.888-4.926-76.378-4.818-107,0
	c-26.331,1.333-52.669,2.667-79,4c-148.652,7.333-297.348,14.667-446,22c0-228.31,0-456.689,0-685
	c166.317-10.332,332.683-20.668,499-31c25.997-1.667,52.003-3.333,78-5c30.092-4.629,67.959-6.953,100-2
	c28.997,0.667,58.003,1.333,87,2c72.659,1.667,145.341,3.333,218,5c86.991,2,174.009,4,261,6c130.32,2.666,260.68,5.334,391,8
	c342.299,7.999,684.701,16.001,1027,24C2840.649,32.771,3020.351,17.768,3200,2.769z"/>
</svg>
