<?xml version="1.0" encoding="utf-8"?>
<!-- Generator: Adobe Illustrator 19.1.0, SVG Export Plug-In . SVG Version: 6.00 Build 0)  -->
<svg version="1.1" id="Layer_1" xmlns="http://www.w3.org/2000/svg" xmlns:xlink="http://www.w3.org/1999/xlink" x="0px" y="0px"
	 width="513px" height="110.3px" viewBox="107 76.8 513 110.3" style="enable-background:new 107 76.8 513 110.3;"
	 xml:space="preserve">
<style type="text/css">
	.st0{fill:#9FA4A6;}
</style>
<g id="Background">
</g>
<g id="Guides">
</g>
<g>
	<g>
		<g>
			<path class="st0" d="M165.4,105.4c-2,4.2-1.2,7.7,1.8,7.8s7.1-3.3,9.1-7.6c2-4.2,1.2-7.7-1.8-7.8
				C171.4,97.8,167.4,101.2,165.4,105.4z M189.8,90.1L189.8,90.1C189.8,90.2,189.8,90.2,189.8,90.1c-1.8,5.2-4.7,10.9-7.7,15.3
				c-6.2,9.2-15.1,15-19.9,13s-3.6-11.2,2.6-20.4c1.4-2.1,2.9-4,4.5-5.6l0,0c0,0,0-0.1-0.1-0.1l0,0c-2,0.3-3.9,0.7-5.9,1.2l0,0
				c-20.9,25.7-29.9,59.1-28.6,88.8l0,0c0,0,0,0.1-0.1,0.1l0,0c-12.4-5-21.4-16.9-22.3-32v-0.2c-1.6-26.9,19.8-54.5,47.8-61.5
				C171,85.9,181.2,86.6,189.8,90.1z"/>
			<path class="st0" d="M181.9,162.6c-2,1.4-4.2,2.7-6.4,3.9l0,0c0,0-0.1,0-0.1-0.1c-0.4-6.4-1.8-12.7-4.2-17.9
				c-6.4-13.9-17.6-15-25-2.4c-4.5,7.7-6.6,18.7-6,29.3v0.1c7.9,2.5,16.9,2.7,26.5,0.3c28-7.1,49.3-34.6,47.8-61.5
				c-1.4-23.6-20-38.8-43.4-37.4l0,0c-2.3,2.3-4.4,4.6-6.4,7l0,0c0,0,0,0.1,0.1,0.1l0,0c13.7-1.7,24.8,1.1,31.9,6.8c0,0,0,0,0,0.1
				l0,0C171.9,125.8,175,145.7,181.9,162.6C181.9,162.5,181.9,162.5,181.9,162.6L181.9,162.6z"/>
		</g>
		<g>
			<g>
				<path class="st0" d="M495.9,136.3c-3.8,3.8-6.7,11-6.7,16.7c0,5,1.9,8.1,5.1,8.1c5.2,0,9.6-5.4,11.2-13.3
					c0.3-1.8,0.7-3.6,0.9-5.2c0.2-1.6,0.4-3,0.4-4c-0.2-3.4-1.9-5.2-5.1-5.2C499.7,133.4,497.7,134.4,495.9,136.3z M501.1,171.6
					L501.1,171.6l1.2-6c0-0.1,0-0.2-0.1-0.2s-0.1,0-0.2,0.1c-2.6,4.4-7.7,7.3-13.5,7.3c-9.5,0-13.7-8.4-13.7-16.8
					c0-9.5,3.7-19,10-25.3c5.3-5.3,12-8,19.6-8c5.8,0,10,1.7,12.7,4.9c4,4.8,3.6,12,2.6,17.2l-5.1,26.8c0,0,0,0.1-0.1,0.1
					L501.1,171.6C501.2,171.7,501.2,171.6,501.1,171.6z"/>
				<path class="st0" d="M412.9,122.7c5.8,0,10.2,1.3,12.2,2.5c0,0,0,0,0,0.1l-2,10.6l0,0c0,0,0,0-0.1,0c-2.4-1.3-6.5-2.7-10.8-2.7
					c-3.7,0-6.1,1.5-6.1,4.1c0,1.9,1.8,3.5,5.7,5.4c5.1,2.5,10.8,6.3,10.8,13.1c0,4.4-1.5,8.1-4.4,11c-3.9,3.8-10.1,5.9-17.7,5.9
					c-5.8-0.1-11.7-1.6-14.6-3.7c0,0,0,0,0-0.1l2-10.7c0,0,0,0,0-0.1c0,0,0,0,0.1,0c3.1,2,9.3,4.1,13.9,4.1c3.5,0,5.9-1.6,5.9-4.2
					c0-2.4-1.7-4-5.9-6.1c-6.7-3.4-10.1-7.6-10.1-12.7C391.8,129.3,400.3,122.7,412.9,122.7z"/>
				<path class="st0" d="M553.4,122.8c3.6,0,7.3,0.6,9.8,1.7c0,0,0.1,0,0,0.1L561,136l0,0c0,0,0,0-0.1,0c-2.2-1.2-4.7-1.8-7.8-1.8
					c-10.1,0-16.2,8.8-16.2,17.3c0,7.2,4.8,9.8,9.3,9.8c4,0,7.4-0.9,11.8-3h0.1c0,0,0,0,0,0.1L556,170l0,0
					c-3.3,1.6-8.4,2.5-13.6,2.5c-12.3,0-20.2-7.7-20.2-19.6C522.2,135.8,535.6,122.8,553.4,122.8z"/>
				<path class="st0" d="M334,122.8c3.6,0,7.3,0.6,9.8,1.7c0,0,0.1,0,0,0.1l-2.2,11.4l0,0c0,0,0,0-0.1,0c-2.2-1.2-4.7-1.8-7.8-1.8
					c-10.1,0-16.1,8.8-16.1,17.3c0,7.2,4.8,9.8,9.3,9.8c4,0,7.4-0.9,11.8-3h0.1c0,0,0,0,0,0.1l-2.2,11.6l0,0
					c-3.3,1.6-8.4,2.5-13.6,2.5c-12.3,0-20.2-7.7-20.2-19.6C302.7,135.8,316.2,122.8,334,122.8z"/>
				<path class="st0" d="M257.8,122.6c0.8,0,1.9,0.1,2.6,0.2l0,0c0,0,0,0,0,0.1l-2.7,13.8l0,0c0,0,0,0-0.1,0
					c-0.5-0.1-1.3-0.2-2.2-0.2c-9.6,0-13.4,9.4-14.9,17.2l-3.4,18.3c0,0,0,0.1-0.1,0.1h-14c0,0,0,0-0.1,0c0,0,0,0,0-0.1l9.2-48.3
					c0,0,0-0.1,0.1-0.1h12.4c0,0,0,0,0.1,0l0,0L243,132c0,0.1,0,0.1,0.1,0.2c0.1,0,0.2,0,0.2-0.1C247,126,252.1,122.6,257.8,122.6z"
					/>
				<path class="st0" d="M276.5,136.3c-3.8,3.8-6.7,11-6.7,16.7c0,5,1.9,8.1,5.1,8.1c5.2,0,9.6-5.4,11.2-13.3
					c0.3-1.8,0.7-3.6,0.9-5.2c0.3-1.6,0.4-3,0.4-4c-0.2-3.4-1.9-5.2-5.1-5.2C280.3,133.4,278.3,134.4,276.5,136.3z M281.7,171.6
					L281.7,171.6l1.2-6c0-0.1,0-0.2-0.1-0.2s-0.1,0-0.2,0.1c-2.6,4.4-7.7,7.3-13.5,7.3c-9.4,0-13.7-8.4-13.7-16.8
					c0-9.5,3.7-19,10-25.3c5.3-5.3,12-8,19.6-8c5.8,0,10,1.7,12.7,4.9c4,4.8,3.6,12,2.6,17.2l-5.1,26.8c0,0,0,0.1-0.1,0.1
					L281.7,171.6C281.8,171.7,281.7,171.6,281.7,171.6z"/>
				<path class="st0" d="M446.1,161.9c7.5,0,12.9-10.6,12.9-20c0-2.3-0.5-7.7-5.7-7.7c-5.3,0-9.8,6-11.5,15.2
					C441.3,152.5,439.6,161.9,446.1,161.9z M458.4,122.7c9.4,0,15.5,7.1,15.5,18.2c0,11.7-5.6,23.6-15.7,29
					c-9.2,4.9-17.4,2.7-20-1.1l0,0l-3.4,18.2c0,0,0,0.1-0.1,0.1h-14.1c0,0,0,0-0.1,0c0,0,0,0,0-0.1l12.1-63.5c0,0,0-0.1,0.1-0.1
					h12.4c0,0,0,0,0.1,0c0,0,0,0,0,0.1L444,130c0,0.1,0,0.2,0.1,0.2s0.1,0,0.2-0.1l0.1-0.1C447.9,125.3,453,122.7,458.4,122.7z"/>
				<path class="st0" d="M352.9,106.8h14c0,0,0,0,0.1,0c0,0,0,0,0,0.1l-7.3,38.3c0,0,0,0,0,0.1c0,0,0,0,0.1,0l18.8-21.6
					c0,0,0,0,0.1,0H394h0.1l0,0l0,0l-19.5,21.9l11.9,25.8l0,0l0,0c0,0,0,0-0.1,0h-15.1h-0.1L359.6,146c0,0,0,0-0.1,0l0,0l-4.8,25.4
					c0,0,0,0.1-0.1,0.1h-14c0,0,0,0-0.1,0c0,0,0,0,0-0.1L352.9,106.8C352.8,106.9,352.9,106.8,352.9,106.8z"/>
				<path class="st0" d="M591.9,137.1c0-2.5-2-4-5.1-4c-6.1,0-10,4.9-11.1,9.5v0.2l0,0l0,0h0.2c8.2,0.1,12.9-0.8,14.9-2.8
					C591.5,139.2,591.9,138.3,591.9,137.1z M588.5,122.7c10,0,16.7,5.8,16.7,14.4c0,4-1.3,7.3-3.9,9.8c-4.7,4.6-13.5,6.7-26.9,6.3
					h-0.2l0,0l0,0v0.2c0,1.4,0.5,3.3,1.4,4.6c1.8,2.3,5.1,3.6,9.1,3.6c5.9,0,11-1.4,16.6-4.6h0.1c0,0,0,0,0,0.1l-2.2,11.8
					c0,0,0,0,0,0.1c-6.8,3.4-14.7,3.8-17.8,3.8c-13.2,0-20.8-7.4-20.8-20.2c0-7.4,2.7-14.8,7.5-20.4
					C573.2,126,580.5,122.7,588.5,122.7z"/>
			</g>
			<path class="st0" d="M605.3,166.7c-0.3,2.9,1.9,5.3,4.8,5.3c3,0,5.6-2.4,5.9-5.4c0.3-2.9-1.9-5.3-4.8-5.3
				C608.2,161.2,605.5,163.7,605.3,166.7z M604.4,166.6c0.3-3.4,3.3-6.2,6.8-6.2c3.4,0,5.9,2.8,5.6,6.2c-0.3,3.4-3.3,6.2-6.8,6.2
				C606.6,172.8,604.1,170,604.4,166.6z M609.3,162.9L609.3,162.9h1.6l0,0c0.4,0,0.7,0,0.9,0c0.3,0,0.5,0.1,0.7,0.1
				c0.8,0.3,1.2,0.9,1.2,1.7c0,0.1,0,0.3,0,0.4c-0.2,1-0.8,1.8-1.9,2.1l1,2.9l0,0l0,0l0,0h-1l0,0l-1-2.8h-0.6l0,0h-0.7l-0.5,2.8l0,0
				h-0.9l0,0l0,0l0.5-2.8l0,0l0.4-2.2L609.3,162.9z M610.7,163.8H610l-0.3,1.4l-0.3,1.4h0.7h0.1c0.3,0,0.6,0,0.8,0
				c0.2,0,0.4,0,0.5-0.1c0.6-0.2,1.1-0.7,1.2-1.3c0.1-0.6-0.2-1.1-0.7-1.2c-0.1-0.1-0.3-0.1-0.5-0.1
				C611.3,163.8,611.1,163.8,610.7,163.8L610.7,163.8z"/>
		</g>
	</g>
</g>
</svg>
