<?xml version="1.0" encoding="utf-8"?>
<!-- Generator: Adobe Illustrator 19.1.0, SVG Export Plug-In . SVG Version: 6.00 Build 0)  -->
<svg version="1.1" id="Layer_1" xmlns="http://www.w3.org/2000/svg" xmlns:xlink="http://www.w3.org/1999/xlink" x="0px" y="0px"
	 width="95.5px" height="72.2px" viewBox="-64 128.5 95.5 72.2" style="enable-background:new -64 128.5 95.5 72.2;"
	 xml:space="preserve">
<style type="text/css">
	.st0{fill:#9FA4A6;}
</style>
<g>
	<g>
		<g>
			<path class="st0" d="M-16.4,152.4v-0.5c3.3,0,6.6-3.8,6.7-3.9l0.4,0.3C-9.5,148.5-13,152.3-16.4,152.4z"/>
		</g>
		<g>
			<path class="st0" d="M-17.2,154.3c-0.3,0-0.6,0-0.9,0v-0.5c5.7,0.6,10.2-5.1,10.3-5.2l0.4,0.3C-7.5,149.2-11.6,154.3-17.2,154.3z
				"/>
		</g>
		<g>
			<path class="st0" d="M-17.9,156.3c-0.6,0-1.2,0-1.8-0.1l0.1-0.5c8.2,1.2,13.9-6.4,13.9-6.5l0.4,0.3
				C-5.3,149.6-10.4,156.3-17.9,156.3z"/>
		</g>
		<g>
			<path class="st0" d="M-18.6,158.4c-0.9,0-1.8-0.1-2.7-0.2l0.1-0.5c10.7,1.7,17.5-7.8,17.5-7.8l0.4,0.3
				C-3.3,150.2-9.2,158.4-18.6,158.4z"/>
		</g>
		<g>
			<path class="st0" d="M-19.2,160.4c-1.2,0-2.4-0.1-3.6-0.3l0.1-0.5c13.2,2.4,21.1-9.1,21.2-9.2l0.4,0.3
				C-1.3,150.8-7.9,160.4-19.2,160.4z"/>
		</g>
		<g>
			<path class="st0" d="M-19.9,162.4c-1.5,0-3-0.1-4.6-0.4l0.1-0.5c15.7,3,24.8-10.4,24.8-10.5l0.4,0.3
				C0.8,151.4-6.8,162.4-19.9,162.4z"/>
		</g>
		<g>
			<path class="st0" d="M-20.6,164.5c-1.7,0-3.6-0.2-5.5-0.5l0.1-0.5c18.1,3.5,28.4-11.7,28.5-11.9l0.4,0.3
				C2.8,152-5.6,164.5-20.6,164.5z"/>
		</g>
		<g>
			<path class="st0" d="M-21.2,166.5c-2,0-4.2-0.2-6.4-0.7l0.1-0.5c20.6,4.2,32-13,32.1-13.2l0.4,0.3
				C4.9,152.6-4.4,166.5-21.2,166.5z"/>
		</g>
		<g>
			<path class="st0" d="M-21.9,168.5c-2.3,0-4.8-0.2-7.4-0.8l0.1-0.5c23.1,4.7,35.6-14.3,35.7-14.5l0.4,0.3
				C6.9,153.2-3.2,168.5-21.9,168.5z"/>
		</g>
		<g>
			<path class="st0" d="M-22.5,170.6c-2.6,0-5.4-0.3-8.3-0.9l0.1-0.5c25.5,5.4,39.2-15.7,39.4-15.9l0.4,0.3
				C8.9,153.8-2,170.6-22.5,170.6z"/>
		</g>
		<g>
			<path class="st0" d="M-23.2,172.6c-2.9,0-6-0.3-9.2-1l0.1-0.5c28,6,42.9-17,43-17.2l0.4,0.3C11,154.4-0.8,172.6-23.2,172.6z"/>
		</g>
	</g>
	<g>
		<g>
			<path class="st0" d="M-11.8,146.7c-3.7,0-6.9-4-7-4.2l0.4-0.3c0,0,3.2,4,6.6,4l0,0V146.7L-11.8,146.7z"/>
		</g>
		<g>
			<path class="st0" d="M-11.3,148.6c-5.6,0-9.4-5.4-9.5-5.5l0.4-0.3c0,0.1,4.1,5.8,9.9,5.2l0.1,0.5
				C-10.7,148.6-11,148.6-11.3,148.6z"/>
		</g>
		<g>
			<path class="st0" d="M-10.9,150.5c-7.5,0-11.9-6.8-11.9-6.8l0.4-0.3c0,0.1,5,7.7,13.3,6.5l0.1,0.5
				C-9.7,150.5-10.3,150.5-10.9,150.5z"/>
		</g>
		<g>
			<path class="st0" d="M-10.5,152.5c-9.3,0-14.3-8.1-14.4-8.2l0.4-0.3c0.1,0.1,6,9.5,16.6,7.7l0.1,0.5
				C-8.7,152.4-9.6,152.5-10.5,152.5z"/>
		</g>
		<g>
			<path class="st0" d="M-10.1,154.4c-11,0-16.7-9.4-16.8-9.5l0.4-0.3c0.1,0.1,6.9,11.4,20,9l0.1,0.5
				C-7.7,154.3-8.9,154.4-10.1,154.4z"/>
		</g>
		<g>
			<path class="st0" d="M-9.7,156.4c-12.8,0-19.1-10.8-19.2-10.9l0.4-0.2c0.1,0.1,7.8,13.2,23.4,10.2L-5,156
				C-6.7,156.2-8.2,156.4-9.7,156.4z"/>
		</g>
		<g>
			<path class="st0" d="M-9.3,158.3c-14.5,0-21.5-12.1-21.6-12.3l0.4-0.2c0.1,0.2,8.7,15.1,26.7,11.4l0.1,0.5
				C-5.6,158.2-7.5,158.3-9.3,158.3z"/>
		</g>
		<g>
			<path class="st0" d="M-8.9,160.3c-16.3,0-23.9-13.5-24-13.6l0.4-0.2c0.1,0.2,9.7,17,30.1,12.7l0.1,0.5
				C-4.6,160.1-6.8,160.3-8.9,160.3z"/>
		</g>
		<g>
			<path class="st0" d="M-8.5,162.3c-18,0-26.3-14.8-26.4-15l0.4-0.2c0.1,0.2,10.6,18.8,33.4,13.9l0.1,0.5
				C-3.6,162-6.2,162.3-8.5,162.3z"/>
		</g>
		<g>
			<path class="st0" d="M-8.1,164.2c-9,0-15.6-3.3-19.9-6.6c-6-4.5-8.9-9.8-8.9-9.8l0.4-0.2c0.1,0.2,11.5,20.7,36.8,15.2l0.1,0.5
				C-2.7,163.9-5.5,164.2-8.1,164.2z"/>
		</g>
		<g>
			<path class="st0" d="M-7.7,166.2c-21.5,0-31.2-17.6-31.3-17.8l0.4-0.2c0.1,0.2,12.5,22.5,40.2,16.4l0.1,0.5
				C-1.6,165.9-4.8,166.2-7.7,166.2z"/>
		</g>
		<g>
			<path class="st0" d="M-7.3,168.2c-23.2,0-33.6-19-33.7-19.2l0.4-0.2c0.2,0.2,13.4,24.4,43.6,17.7l0.1,0.5
				C-0.6,167.8-4.1,168.2-7.3,168.2z"/>
		</g>
	</g>
	<g>
		<g>
			<path class="st0" d="M-14.8,154.6l-0.5-0.1c0.4-3.3,2.7-5.9,2.8-6l0.4,0.3C-12.1,148.9-14.4,151.5-14.8,154.6z"/>
		</g>
		<g>
			<path class="st0" d="M-17.2,156.4c-0.4-6.4,4.6-9.9,4.6-9.9l0.3,0.4c0,0-4.8,3.4-4.4,9.5H-17.2z"/>
		</g>
		<g>
			<path class="st0" d="M-19.1,158.3c-1.1-9.4,6.3-13.8,6.3-13.8l0.2,0.4c-0.1,0-7.2,4.3-6.1,13.3L-19.1,158.3z"/>
		</g>
		<g>
			<path class="st0" d="M-21,160.1c-1.9-12.4,8-17.6,8.1-17.6l0.2,0.4c-0.1,0-9.6,5.1-7.8,17.1L-21,160.1z"/>
		</g>
		<g>
			<path class="st0" d="M-23,162c-2.6-15.4,9.7-21.4,9.8-21.5l0.2,0.5c0,0-12,5.9-9.5,20.9L-23,162z"/>
		</g>
		<g>
			<path class="st0" d="M-24.9,163.8c-3.3-18.4,11.4-25.2,11.6-25.3l0.2,0.5c-0.1,0.1-14.5,6.8-11.3,24.7L-24.9,163.8z"/>
		</g>
		<g>
			<path class="st0" d="M-26.8,165.6c-4.1-21.3,13.1-29,13.3-29.1l0.2,0.5c-0.2,0.1-17,7.6-13,28.6H-26.8z"/>
		</g>
		<g>
			<path class="st0" d="M-28.7,167.5c-4.8-24.4,14.8-32.9,15-33l0.2,0.5c-0.2,0-19.5,8.4-14.7,32.4L-28.7,167.5z"/>
		</g>
		<g>
			<path class="st0" d="M-30.6,169.3c-5.6-27.3,16.5-36.7,16.7-36.8l0.2,0.5c-0.2,0.1-21.9,9.3-16.5,36.2L-30.6,169.3z"/>
		</g>
		<g>
			<path class="st0" d="M-32.6,171.1c-6.2-30.3,18.3-40.5,18.5-40.6l0.2,0.5c-0.2,0.1-24.4,10.1-18.2,40L-32.6,171.1z"/>
		</g>
		<g>
			<path class="st0" d="M-34.5,173c-3.6-17.4,2-28.6,7.5-34.9c5.8-6.8,12.7-9.6,12.7-9.6l0.2,0.5c-0.1,0-6.8,2.7-12.6,9.5
				c-5.3,6.2-10.9,17.2-7.3,34.4L-34.5,173z"/>
		</g>
	</g>
</g>
<g>
	<g id="XMLID_45_">
		<g>
			<rect x="-15.8" y="128.7" class="st0" width="1.8" height="26.4"/>
		</g>
	</g>
	<g id="XMLID_44_">
		<g>
			
				<rect x="-27.4" y="148.4" transform="matrix(-0.5001 -0.866 0.866 -0.5001 -179.7224 219.5188)" class="st0" width="1.8" height="26.4"/>
		</g>
	</g>
	<g id="XMLID_43_">
		<g>
			
				<rect x="-16.8" y="160.7" transform="matrix(-0.8661 -0.4999 0.4999 -0.8661 -87.4717 299.7088)" class="st0" width="26.4" height="1.8"/>
		</g>
	</g>
</g>
<g>
	<g>
		<g>
			<path class="st0" d="M-63.7,182l15.6,15.8v-15.5h1.2v18.4l-15.6-15.8v15.3h-1.2V182z"/>
		</g>
	</g>
	<g>
		<g>
			<path class="st0" d="M-33.9,185.3c-1.1-1.6-2.1-2.2-3.7-2.2c-2,0-3.5,1.5-3.5,3.4c0,1.5,0.8,2.2,3.3,3.4c2.5,1.1,2.8,1.3,3.7,1.9
				c1.3,0.8,2,2,2,3.4c0,2.9-2.6,5.3-5.8,5.3c-1.7,0-3.2-0.7-4.3-1.9c-0.5-0.6-0.7-0.9-1.1-2l1-0.5c0.5,1,0.6,1.2,1,1.7
				c0.8,0.9,2.1,1.5,3.4,1.5c2.5,0,4.6-1.9,4.6-4.2c0-1.2-0.6-2.1-1.8-2.8c-0.5-0.3-1.1-0.6-1.9-0.9c-1.8-0.9-2.8-1.3-3.5-1.8
				c-1.2-0.8-1.8-1.8-1.8-3.2c0-2.6,2-4.5,4.8-4.5c1.9,0,3.5,0.9,4.5,2.6L-33.9,185.3z"/>
		</g>
	</g>
	<g>
		<g>
			<path class="st0" d="M-15.8,181.9c5.3,0,9.7,4.2,9.7,9.3c0,5.1-4.4,9.3-9.7,9.3c-5.4,0-9.7-4.1-9.7-9.2
				C-25.6,186.1-21.2,181.9-15.8,181.9z M-15.8,198c3.8,0,6.9-3,6.9-6.8s-3-6.8-6.9-6.8s-6.9,3-6.9,6.9C-22.7,195-19.6,198-15.8,198
				z"/>
		</g>
	</g>
	<g>
		<g>
			<path class="st0" d="M-2.6,181.8l13.5,11.9v-11.4h2.8v17.9L0.1,188.4v11.8h-2.8v-18.4H-2.6z"/>
		</g>
	</g>
	<g>
		<g>
			<path class="st0" d="M21.2,184.8v4.3h10.1v2.5H21.2v6h10.3v2.6H18.3v-17.9h13.1v2.5H21.2z"/>
		</g>
	</g>
</g>
</svg>
