<?xml version="1.0" encoding="utf-8"?>
<!-- Generator: Adobe Illustrator 19.1.0, SVG Export Plug-In . SVG Version: 6.00 Build 0)  -->
<svg version="1.1" xmlns="http://www.w3.org/2000/svg" xmlns:xlink="http://www.w3.org/1999/xlink" x="0px" y="0px" width="222.2px"
	 height="30.9px" viewBox="0 0 222.2 30.9" style="enable-background:new 0 0 222.2 30.9;" xml:space="preserve">
<style type="text/css">
	.st0{fill:none;}
	.st1{fill:#231F20;}
</style>
<g id="clear-space">
	<rect x="-38.9" y="-38.9" class="st0" width="300" height="108.7"/>
</g>
<g id="logo">
	<path id="squarespace-logo-horizontal" class="st1" d="M79.8,14.9L79.8,14.9c0-4.4-3.2-8.2-8-8.2c-4.8,0-8.1,3.8-8.1,8.2v0
		c0,4.3,3.2,8.1,8,8.1c2,0,3.6-0.6,5-1.7l2.1,1.9l1.2-1.3l-2.1-1.7C79.2,18.7,79.8,16.9,79.8,14.9z M76.6,19l-2.9-2.6l-1.2,1.3
		l2.9,2.5c-1,0.7-2.2,1.2-3.6,1.2c-3.6,0-6.2-2.9-6.2-6.5v0c0-3.6,2.6-6.5,6.2-6.5c3.6,0,6.2,2.9,6.2,6.5v0
		C78,16.5,77.5,17.9,76.6,19z M94.7,16.2c0,3.4-1.8,5.2-4.8,5.2c-3,0-4.8-1.9-4.8-5.3V7h-1.8v9.2c0,4.5,2.7,6.8,6.6,6.8
		c3.9,0,6.6-2.4,6.6-7V7h-1.8V16.2z M201.3,21.4c-3.5,0-6.1-2.9-6.1-6.5v0c0-3.6,2.6-6.5,6.1-6.5c2.1,0,3.6,0.9,5,2.2l1.2-1.3
		c-1.6-1.5-3.3-2.5-6.2-2.5c-4.6,0-8,3.7-8,8.2v0c0,4.5,3.4,8.1,7.9,8.1c2.9,0,4.7-1.1,6.3-2.8l-1.2-1.1
		C204.9,20.5,203.5,21.4,201.3,21.4z M212.5,21.1v-5.5h8.6V14h-8.6V8.6h9.6V7h-11.4v15.8h11.5v-1.6H212.5z M169.6,7h-5.9v15.8h1.8
		v-5.6h3.8c3.4,0,6.2-1.8,6.2-5.2v0C175.5,8.9,173.2,7,169.6,7z M173.7,12.1c0,2.1-1.7,3.5-4.3,3.5h-3.9V8.6h4
		C172.1,8.6,173.7,9.8,173.7,12.1L173.7,12.1z M55.7,14c-3.5-0.7-4.3-1.6-4.3-3.1v0c0-1.4,1.3-2.5,3.4-2.5c1.6,0,3.1,0.5,4.6,1.7
		l1-1.4c-1.6-1.3-3.2-1.9-5.5-1.9c-3,0-5.2,1.8-5.2,4.3v0c0,2.6,1.7,3.8,5.3,4.6c3.3,0.7,4.1,1.5,4.1,3v0c0,1.6-1.4,2.7-3.5,2.7
		c-2.2,0-3.8-0.7-5.4-2.2L49,20.5c1.9,1.7,3.9,2.5,6.4,2.5c3.1,0,5.4-1.8,5.4-4.5v0C60.8,16.1,59.2,14.8,55.7,14z M136,15.6h8.6V14
		H136V8.6h9.6V7h-11.4v15.8h11.5v-1.6H136V15.6z M155,14c-3.5-0.7-4.3-1.6-4.3-3.1v0c0-1.4,1.3-2.5,3.4-2.5c1.6,0,3.1,0.5,4.6,1.7
		l1-1.4c-1.6-1.3-3.2-1.9-5.5-1.9c-3,0-5.2,1.8-5.2,4.3v0c0,2.6,1.7,3.8,5.3,4.6c3.3,0.7,4.1,1.5,4.1,3v0c0,1.6-1.4,2.7-3.5,2.7
		c-2.2,0-3.8-0.7-5.4-2.2l-1.1,1.3c1.9,1.7,3.9,2.5,6.4,2.5c3.1,0,5.4-1.8,5.4-4.5v0C160.1,16.1,158.5,14.8,155,14z M106,6.9
		l-7.2,15.9h1.8l1.9-4.2h8.6l1.8,4.2h1.9l-7.2-15.9H106z M103.2,17l3.6-8l3.6,8H103.2z M183.1,6.9l-7.2,15.9h1.8l1.9-4.2h8.6
		l1.8,4.2h1.9l-7.2-15.9H183.1z M180.3,17l3.6-8l3.6,8H180.3z M130.4,11.7L130.4,11.7c0-1.3-0.5-2.4-1.2-3.2c-1-1-2.5-1.6-4.5-1.6
		h-6.8v15.8h1.8v-6.1h4.5l4.6,6.1h2.2l-4.8-6.4C128.6,15.9,130.4,14.3,130.4,11.7z M119.7,15V8.6h4.9c2.5,0,4,1.2,4,3.1v0
		c0,2-1.7,3.2-4.1,3.2H119.7z M6.2,16.8c0.7,0.7,1.9,0.7,2.7,0L20.8,4.9c1.5-1.5,3.8-1.5,5.3,0c0.7,0.7,1.9,0.7,2.7,0
		c0.7-0.7,0.7-1.9,0-2.7c-2.9-2.9-7.7-2.9-10.6,0L6.2,14.1C5.4,14.9,5.4,16.1,6.2,16.8z M24.7,8.8c0.7-0.7,0.7-1.9,0-2.7
		c-0.7-0.7-1.9-0.7-2.7,0L10.2,18.1c-1.5,1.5-3.8,1.5-5.3,0c-1.5-1.5-1.5-3.8,0-5.3L16.6,1.1c-1.5-1.5-3.8-1.5-5.3,0l-9.1,9.1
		c-2.9,2.9-2.9,7.7,0,10.6c2.9,2.9,7.7,2.9,10.6,0L24.7,8.8z M26.1,10.2L14.1,22.1c-0.7,0.7-0.7,1.9,0,2.7c0.7,0.7,1.9,0.7,2.7,0
		l11.9-11.9c1.5-1.5,3.8-1.5,5.3,0c1.5,1.5,1.5,3.8,0,5.3L22.3,29.8c1.5,1.5,3.8,1.5,5.3,0l9.1-9.1c2.9-2.9,2.9-7.7,0-10.6
		C33.8,7.2,29,7.2,26.1,10.2z M32.7,14.1c-0.7-0.7-1.9-0.7-2.7,0L18.1,26.1c-1.5,1.5-3.8,1.5-5.3,0c-0.7-0.7-1.9-0.7-2.7,0
		c-0.7,0.7-0.7,1.9,0,2.7c2.9,2.9,7.7,2.9,10.6,0l11.9-11.9C33.4,16.1,33.4,14.9,32.7,14.1z"/>
</g>
</svg>
