<?xml version="1.0" encoding="utf-8"?>
<!-- Generator: Adobe Illustrator 19.1.0, SVG Export Plug-In . SVG Version: 6.00 Build 0)  -->
<svg version="1.1" id="Layer_1" xmlns="http://www.w3.org/2000/svg" xmlns:xlink="http://www.w3.org/1999/xlink" x="0px" y="0px"
	 width="273.6px" height="69.6px" viewBox="0 0 273.6 69.6" style="enable-background:new 0 0 273.6 69.6;" xml:space="preserve">
<style type="text/css">
	.st0{fill:#FFFFFF;}
</style>
<g>
	<path class="st0" d="M40,41.4c0,7.8,0,15.5,0,23.2c-11.8,0-23.3,0-35.1,0c0-7.8,0-15.5,0-23.3c-1.8-0.2-3.3-0.3-4.9,0.1
		c0,9.3,0,18.5,0,27.8c0.6,0.3,1.2,0.3,1.8,0.3c13.7,0,27.4,0,41.2,0c0.6,0,1.2,0.1,1.7-0.4c0-9.1,0-18.4,0-27.7
		C43.1,41,41.7,40.9,40,41.4z"/>
	<path class="st0" d="M35.6,60.1c0.1-2,0.2-3.8-0.1-5.6c-9,0-17.9,0-26.9,0c-0.1,1.9-0.1,3.6,0,5.6C17.7,60.1,26.6,60.1,35.6,60.1z"
		/>
	<path class="st0" d="M36.1,46.9c-8.9-0.8-17.7-1.6-26.6-2.5c-0.5,2-0.5,3.9-0.6,5.8c9,0.8,17.8,1.6,26.9,2.5
		C35.8,50.8,36.4,49,36.1,46.9z"/>
	<path class="st0" d="M41.4,32.8c-7.7-4.6-15.4-9.1-23.2-13.7c-1.1,1.7-2.1,3.3-2.9,5.1c7.7,4.6,15.4,9.1,23.2,13.7
		C39.5,36.2,40.6,34.6,41.4,32.8z"/>
	<path class="st0" d="M27.1,9.8c5.1,7.5,10.2,14.9,15.2,22.4c1.7-1.2,3.2-2.2,4.8-3.3C42,21.3,37,13.9,31.9,6.5
		C30.2,7.7,28.7,8.7,27.1,9.8z"/>
	<path class="st0" d="M49.3,1c-2,0.1-3.7,0.5-5.8,0.9c1.6,9,3.1,17.7,4.6,26.6c2-0.3,3.9-0.5,5.7-1.1C52.3,18.6,50.8,9.8,49.3,1z"/>
	<path class="st0" d="M38,39.4c-8.7-2.3-17.3-4.6-25.9-7c-0.7,1.9-1.1,3.6-1.5,5.6c8.8,2.4,17.3,4.7,26,7
		C37.1,43.1,37.6,41.4,38,39.4z"/>
	<path class="st0" d="M129.5,49.8h-0.4c-0.3,0-0.5,0-0.7,0c-0.5,0-1,0-1.5,0c-0.5,0-0.8,0.1-1.2,0.5c-2.3,2.6-4.6,5.2-6.9,7.8
		l-1.5,1.7c0,0,0,0-0.1,0.1V41h-2.7v28.2h2.7l0-1.8c0-1.2,0-2.4,0-3.7c0-0.2,0.1-0.4,0.2-0.5c0.5-0.6,1-1.1,1.5-1.7l0.1-0.1
		c0.5-0.6,1.1-1.2,1.6-1.8l0.6-0.6c0.1,0.1,0.1,0.2,0.2,0.3l5.6,8.6c0.1,0.1,0.1,0.2,0.2,0.4c0.2,0.3,0.3,0.7,0.6,0.8
		c0.2,0.1,0.4,0.1,0.6,0.1c0.1,0,0.3,0,0.4,0c0.1,0,0.3,0,0.4,0c0.3,0,0.6,0,0.9,0l0.8,0l-8-12.1L129.5,49.8z"/>
	<path class="st0" d="M93.6,54.5c-0.3-2-1.3-3.4-3-4.2c-2-0.9-4.3-1.1-6.9-0.6c-1.7,0.3-3.1,1-4.1,2.2l-0.1,0.1l1.7,1.8l0.1-0.1
		c0.1-0.1,0.3-0.2,0.4-0.3c0.3-0.2,0.5-0.4,0.7-0.5c1.7-0.9,3.6-1.1,6-0.6c1.5,0.3,2.3,1.3,2.5,2.7c0.1,0.7,0,1.4,0,2.1
		c0,0.3,0,0.6,0,0.8h-0.3c-0.7,0-1.3,0-2,0c-1.5,0-3,0-4.5,0c-1.5,0-2.8,0.5-3.8,1.3c-1.6,1.3-2.2,3.2-1.8,5.4
		c0.3,1.9,1.6,3.2,3.6,4c0.9,0.3,2,0.5,3.1,0.5c0.7,0,1.4-0.1,2.2-0.2c1.2-0.2,2.6-0.5,3.6-1.7v1.6h2.7l0-3.7c0-3,0-6.1,0-9.1
		C93.7,55.6,93.7,55.1,93.6,54.5z M90.9,64c-0.1,0.9-0.6,1.7-1.8,2.3c-1.2,0.6-2.6,0.7-4.2,0.7c-0.9,0-1.8-0.3-2.5-0.7
		c-0.8-0.5-1.3-1.3-1.5-2.3c-0.1-1,0.2-2,0.8-2.5c0.7-0.6,1.6-0.9,2.7-1c1.3,0,2.6,0,3.9,0c0.9,0,1.7,0,2.6,0c0,0.3,0,0.7,0,1
		C90.9,62.3,91,63.1,90.9,64z"/>
	<path class="st0" d="M64,59c-1.1-0.5-2.2-0.6-3.4-0.8c-0.2,0-0.5-0.1-0.7-0.1c-1.2-0.2-2.2-0.4-3.1-0.7c-0.5-0.2-1.2-0.6-1.4-1.5
		c-0.3-1.4,0.5-2.7,1.9-3.3c1.5-0.6,3.1-0.6,4.9-0.1c0.6,0.2,1.2,0.5,1.9,0.8c0.3,0.1,0.6,0.3,0.9,0.4l0.1,0.1l1.4-2l-0.1-0.1
		c0,0,0-0.1-0.1-0.1c0,0-0.1-0.1-0.2-0.1c-2.7-1.8-5.8-2.3-9.2-1.4c-2.4,0.6-3.8,2.2-4.2,4.4c-0.4,2.6,0.5,4.3,2.8,5.2
		c0.7,0.3,1.5,0.4,2.3,0.6l0.4,0.1c0.5,0.1,1,0.2,1.5,0.3c0.7,0.1,1.5,0.2,2.2,0.4c0.9,0.2,1.6,0.7,1.9,1.3c0.3,0.6,0.4,1.3,0.2,2.1
		c-0.3,1.1-1.1,1.8-2.3,2.1c-2.4,0.7-4.7,0.3-7-0.9c-0.3-0.2-0.7-0.4-1-0.6c-0.2-0.1-0.3-0.2-0.5-0.3l-0.1-0.1l-1.7,2.2l0.2,0.1
		c0.2,0.1,0.4,0.3,0.6,0.4c0.4,0.3,0.8,0.5,1.3,0.8c1.8,0.9,3.7,1.3,5.9,1.3c0.3,0,0.6,0,0.9,0c1.8-0.1,3.3-0.6,4.6-1.5
		c1.5-1.1,2.4-3,2.1-4.9C66.8,61.1,65.7,59.7,64,59z"/>
	<path class="st0" d="M102.7,52.7c1.5-0.8,3.3-0.8,4.9-0.1c0.5,0.2,0.9,0.5,1.3,0.8c0.2,0.1,0.4,0.3,0.7,0.4l0.1,0.1l1.8-2l-0.3-0.2
		c-0.1,0-0.1-0.1-0.2-0.1c-2.1-1.8-4.4-2.5-7.1-2.1c-3.4,0.5-5.6,2.3-6.7,5.5c-0.8,2.4-0.9,5-0.2,7.8c0.5,2.2,1.6,3.8,3.2,4.9
		c1.5,1,3.2,1.5,4.9,1.5c0.9,0,1.9-0.1,2.9-0.4c1.2-0.3,2.3-1,3.4-2.1l0.1-0.1l-1.8-1.9l-0.1,0.1c-0.2,0.1-0.3,0.2-0.4,0.4
		c-1.5,1.2-2.9,1.6-4.5,1.4c-2.2-0.3-3.7-1.4-4.5-3.2c-0.9-2-1-4.3-0.4-6.9C100.1,54.9,101.2,53.5,102.7,52.7z"/>
	<path class="st0" d="M77.3,66.9l0-0.2l-0.1,0c-0.2,0-0.4,0-0.6,0c-0.4,0-0.9,0-1.3-0.1c-0.8-0.1-1.4-0.6-1.6-1.4
		c-0.1-0.4-0.1-0.8-0.1-1.4c0-3.1,0-6.2,0-9.3l0-2.1c0-0.1,0-0.2,0-0.3l0,0h3.2v-2.4h-3.2v-4.8h-2.8v4.9h-2.4v2.4h2.4l0,3.2
		c0,2.9,0,5.9,0,8.8c0,0.4,0,0.9,0.1,1.4c0.2,1.7,1,2.7,2.3,3.3c0.8,0.3,1.6,0.4,2.4,0.4c0.2,0,0.4,0,0.6,0c0.3,0,0.7,0,1,0l0.2,0
		l0-0.6c0-0.5,0-1,0-1.5C77.3,67.1,77.3,67,77.3,66.9z"/>
	<path class="st0" d="M272.3,49.9c-1.6,0-3.3,0-5,0c0,0-0.2,0.1-0.2,0.2c-0.7,2.3-1.3,4.7-1.9,7c-0.2,0.6-0.3,1.3-0.5,1.9
		c-0.1,0.5-0.2,0.9-0.4,1.4c0,0.1-0.1,0.2-0.2,0.3c0,0,0,0.1-0.1,0.1L264,61l-0.2-0.3c-0.1-0.1-0.1-0.1-0.2-0.2
		c0-0.1-0.1-0.2-0.1-0.2l0-0.1l-0.6-2c-0.8-2.7-1.6-5.4-2.4-8.1c-0.1-0.2-0.1-0.3-0.4-0.3c-1.4,0-2.6,0-3.6,0
		c-0.3,0-0.4,0.1-0.5,0.4c-0.9,3-1.8,6.1-2.8,9.1l-0.3,1c0,0.1-0.1,0.2-0.1,0.3l-0.1,0.3l-0.4-0.1l-0.1-0.2c0-0.1-0.1-0.2-0.1-0.3
		l-0.4-1.6c-0.8-2.9-1.5-5.7-2.3-8.6c-0.1-0.2-0.1-0.3-0.4-0.3c-1.2,0-2.4,0-3.6,0l-1.5,0c-0.1,0-0.2,0-0.2,0c0,0.1,0,0.1,0,0.2l1,3
		c1.8,5.3,3.6,10.6,5.4,15.9c0.1,0.2,0.1,0.2,0.3,0.2c0,0,0,0,0,0l0.2,0c0.6,0,1.2,0,1.9,0c0.6,0,1.2,0,1.8,0c0.3,0,0.4-0.1,0.5-0.4
		c0.9-3.1,1.9-6.2,2.8-9.3l0.2-0.7c0-0.1,0.1-0.2,0.1-0.3c0-0.1,0.1-0.1,0.1-0.2l0.2-0.4l3.4,11.3l1.1,0c1.1,0,2.1,0,3.1,0
		c0.3,0,0.3,0,0.4-0.3c1.6-4.6,3.2-9.3,4.8-13.9l1.2-3.5c0.1-0.4,0.3-0.8,0.4-1.3l0.1-0.3L272.3,49.9z"/>
	<path class="st0" d="M180.4,50.5c-1.2-0.6-2.5-0.8-3.9-0.8c-0.6,0-1.3,0.1-1.9,0.2c-3.4,0.6-5.8,2.8-6.7,6.3
		c-0.5,2.1-0.5,4.3-0.1,6.6c0.5,2.6,1.7,4.4,3.7,5.5c1.4,0.8,3.1,1.2,5.1,1.2c2.2,0,4-0.5,5.6-1.5c0.5-0.3,1-0.6,1.5-1
		c0.2-0.1,0.4-0.3,0.5-0.4l-3.3-3.6c-1.1,1-2.3,1.5-3.8,1.7c-1.2,0.1-2.2-0.1-2.8-0.7c-0.7-0.6-1.1-1.6-1.2-2.9l0-0.2h12.1
		c0.1-1.6,0-3.7-0.7-5.7C183.7,53,182.4,51.4,180.4,50.5z M173.2,57.5l0-0.2c0.1-1.7,1.5-3,3.1-3c0,0,0,0,0,0c1.7,0,2.9,1.3,3,3
		l0,0.2H173.2z"/>
	<path class="st0" d="M243.4,55.8c-0.5-2.6-1.9-4.4-4.3-5.4c-1.2-0.5-2.5-0.8-3.9-0.8c-1,0-2,0.1-3.1,0.4c-2.6,0.7-4.3,2.2-5.1,4.4
		c-0.3,0.9-0.5,1.9-0.7,2.8c-0.4,2.4-0.3,4.6,0.3,6.6c0.8,2.6,2.3,4.3,4.7,5c2.2,0.7,4.5,0.7,6.8-0.1c2.4-0.8,4-2.5,4.9-5
		c0.5-1.4,0.6-2.8,0.8-4.5c0-0.4-0.1-0.8-0.1-1.1C243.6,57.4,243.5,56.6,243.4,55.8z M238.4,59.5c-0.1,0.3-0.1,0.6-0.2,0.9
		c-0.1,0.7-0.2,1.5-0.4,2.2c-0.4,1.3-1.4,2-2.8,2.1c0,0,0,0-0.1,0c-1.3,0-2.3-0.7-2.8-1.9c-0.6-1.4-0.6-2.9-0.4-4.3
		c0.1-0.7,0.2-1.5,0.5-2.1c0.5-1.3,1.6-2,3.1-2c1.3,0.1,2.3,0.9,2.6,2.2c0.2,0.6,0.2,1.3,0.3,1.9C238.3,58.8,238.3,59.1,238.4,59.5
		L238.4,59.5L238.4,59.5z"/>
	<path class="st0" d="M144.8,50.5c-1.2-0.6-2.5-0.9-4.2-0.9c-0.3,0-0.6,0.1-0.9,0.1c-0.7,0.1-1.4,0.2-2,0.4c-2,0.5-3.5,1.6-4.6,3.2
		c-0.6,1-1,2.2-1.3,3.8c-0.4,2.8-0.3,5,0.3,7c0.8,2.6,2.3,4.2,4.6,4.9c1.7,0.5,3.5,0.7,5.3,0.3c3.2-0.6,5.2-2.2,6.3-4.9
		c1.1-2.9,1.2-6.1,0.2-9.6C148,52.8,146.8,51.4,144.8,50.5z M143.7,60.4c-0.1,0.7-0.2,1.4-0.4,2.2c-0.4,1.3-1.4,2.1-2.8,2.1
		c0,0-0.1,0-0.1,0c-1.3,0-2.2-0.7-2.8-1.9c-0.4-0.9-0.5-1.8-0.5-2.6c0-1.3,0-2.6,0.5-3.9c0.4-0.9,1-1.5,1.9-1.8
		c0.8-0.3,1.7-0.2,2.5,0.2c0.7,0.4,1.2,1.1,1.4,2.1c0.1,0.6,0.2,1.1,0.3,1.7c0,0.3,0.1,0.9,0.1,0.9S143.7,60.1,143.7,60.4z"/>
	<path class="st0" d="M209.3,40.8c-2.3,0.2-4,1.7-4.5,4c-0.1,0.7-0.1,1.4-0.2,2.2c0,0.3,0,0.5,0,0.8c0,0.4,0,0.9,0,1.3
		c0,0.2,0,0.4,0,0.6v0.2h-2.2v4h2.2v15.2h5.3V53.9h3.8v-4.1H210v-0.2c0-0.3,0-0.7,0-1c0-0.8,0-1.6,0-2.4c0-0.6,0.5-1.1,1.3-1.2
		c0.4,0,0.8,0,1.1,0l0.2,0c0.3,0,0.6,0,0.9,0l0.3,0v-4.3c-0.4,0-0.9,0-1.3,0C211.4,40.7,210.3,40.7,209.3,40.8z"/>
	<path class="st0" d="M165.8,49.9c-1.3,0-2.6,0-3.9,0c0,0,0,0,0,0c-0.1,0-0.2,0-0.2,0.2c-0.5,1.6-1.1,3.2-1.6,4.8l-1.3,4.1
		c-0.2,0.6-0.4,1.1-0.5,1.7l-0.3,1.1l-0.2-0.2c-0.2-0.2-0.2-0.3-0.3-0.5l-0.6-2c-1-3-1.9-6-2.9-9c-0.1-0.3-0.2-0.3-0.4-0.3
		c0,0,0,0,0,0c-1.1,0-2.1,0-3.2,0l-2.1,0c0,0,0,0,0,0.1l1.4,3.6c2,5.1,4,10.3,6.1,15.4c0.1,0.2,0.1,0.2,0.3,0.2c0,0,0,0,0,0
		c0.6,0,1.2,0,1.9,0c0.5,0,1.1,0,1.7,0c0.3,0,0.4-0.1,0.5-0.3c1.6-4.2,3.3-8.4,4.9-12.5l1.5-3.9c0.2-0.6,0.5-1.2,0.7-1.8l0.3-0.7
		H165.8z"/>
	<path class="st0" d="M222.7,64.6c-0.9-0.1-1.3-0.6-1.4-1.4c0-0.4-0.1-0.7-0.1-1c0-5.6,0-11.2,0-16.8v-4.6h-5.3v5.1
		c0,5.4,0,10.9,0,16.3c0,0.7,0,1.6,0.1,2.4c0.2,2,1,3.3,2.5,4.1c1,0.5,2,0.6,3,0.6c0.5,0,1.1,0,1.6,0c0.2,0,0.4,0,0.6,0v-4.5l-0.2,0
		C223.2,64.6,223,64.6,222.7,64.6z"/>
	<path class="st0" d="M193.2,52.1l-0.1,0.2l-0.3-0.3v-2.1h-5.1v19.3h5.3l0-3.1c0-2.9,0-5.9,0-8.8c0-0.5,0.2-1.1,0.6-1.6
		c0.8-1.2,2.1-1.2,3-1.1c1.2,0.1,2.2,0.4,3.1,0.9l1.9-4.7C198.1,48.9,195.4,49.4,193.2,52.1z"/>
</g>
</svg>
