<?xml version="1.0" encoding="utf-8"?>
<!-- Generator: Adobe Illustrator 19.1.0, SVG Export Plug-In . SVG Version: 6.00 Build 0)  -->
<svg version="1.1" id="Layer_1" xmlns="http://www.w3.org/2000/svg" xmlns:xlink="http://www.w3.org/1999/xlink" x="0px" y="0px"
	 width="95.3px" height="40.5px" viewBox="110.5 30.2 95.3 40.5" style="enable-background:new 110.5 30.2 95.3 40.5;"
	 xml:space="preserve">
<style type="text/css">
	.st0{fill:#FFFFFF;}
</style>
<g>
	<g id="XMLID_528_">
		<path id="XMLID_535_" class="st0" d="M118.1,41.1c0.4,3.9,0.6,6.9,0.6,13.7v14.8h-8.2V30.4h10.2l8,15.5c2,3.8,4.1,8.1,5.5,12h0.2
			c-0.5-5.5-0.5-10.9-0.5-15V30.4h8.1v39.2h-10l-8.6-16.6c-2-3.8-3.6-7.7-5.2-12H118.1z"/>
		<path id="XMLID_533_" class="st0" d="M166.1,59.7c0-6.2-18.1-5.4-18.1-17.7c0-6.5,5.7-11.6,13.8-11.6c6.5,0,10.6,3,11.9,4.7
			l-5.3,6.3c-0.9-1.2-3.2-3.6-7.3-3.6c-2.8,0-4.4,1.6-4.4,3.5c0,6.3,18,5.4,18,17.9c0,5.9-4.9,11.6-14.8,11.6
			c-7.6,0-12.3-3.4-13.6-4.9l4.9-7.1c1.7,1.7,5.1,4.7,9.9,4.7C164.4,63.6,166.1,61.8,166.1,59.7z"/>
		<path id="XMLID_531_" class="st0" d="M181.1,42.5l-3.3-6.6l7.5-5.2h8.3v39.1h-8.2V49.5l0.3-10.1"/>
	</g>
	<path id="XMLID_13_" class="st0" d="M201.1,60.7c2.7,0,4.7,2,4.7,4.7c0,2.5-2,4.5-4.7,4.5c-2.5,0-4.5-2-4.5-4.5
		C196.6,62.7,198.6,60.7,201.1,60.7z"/>
</g>
</svg>
