<?xml version="1.0" encoding="utf-8"?>
<!-- Generator: Adobe Illustrator 19.1.0, SVG Export Plug-In . SVG Version: 6.00 Build 0)  -->
<svg version="1.1" xmlns="http://www.w3.org/2000/svg" xmlns:xlink="http://www.w3.org/1999/xlink" x="0px" y="0px" width="400px"
	 height="400px" viewBox="0 0 400 400" enable-background="new 0 0 400 400" xml:space="preserve">
<g id="Layer_1">
	<g>
		<path d="M299.3,162.8v-34.4c0-52.8-44.8-95.7-99.8-95.7s-99.8,42.9-99.8,95.7v34.4c-21,5.6-35.9,24-35.9,45.2v114.1
			c0,25.9,22,47,49,47h173.4c27,0,49-21.1,49-47V208C335.2,186.8,320.4,168.4,299.3,162.8z M230.4,161h-61.7v-32.6
			c0-16.3,13.8-29.6,30.8-29.6s30.8,13.3,30.8,29.6V161z M219.6,289.5h-40.1l5-33c-3.3-3.5-5.1-8.1-5.1-12.8
			c0-10.7,9-19.3,20.1-19.3c11.1,0,20.1,8.7,20.1,19.3c0,4.7-1.8,9.3-5.1,12.8L219.6,289.5z"/>
	</g>
</g>
<g id="Layer_2" display="none">
	<g display="inline">
		<path d="M327.7,283.1c-34.5,16.9-79.9,26.1-127.9,26.1S106.5,300,72,283.1c-14.9-7.3-27.3-15.7-36.9-25.1
			c-2,5.1-3.1,10.3-3.1,15.7c0,45.3,75.1,82,167.8,82s167.8-36.7,167.8-82c0-5.4-1.1-10.6-3.1-15.7
			C355,267.4,342.6,275.9,327.7,283.1z"/>
		<path d="M199.9,288.3c92.7,0,167.8-36.7,167.8-82c0-8.1-2.5-15.9-6.9-23.4c-9,7.9-20,15.2-33,21.5
			c-34.5,16.9-79.9,26.1-127.9,26.1s-93.4-9.3-127.9-26.1c-13-6.4-24-13.6-33-21.5c-4.5,7.4-6.9,15.2-6.9,23.4
			C32,251.6,107.2,288.3,199.9,288.3z"/>
		<path d="M367.7,127.7c0,45.3-75.1,82-167.8,82S32,173,32,127.7c0-45.3,75.1-82,167.8-82S367.7,82.5,367.7,127.7z"/>
		<ellipse cx="199.9" cy="127.7" rx="167.8" ry="82"/>
	</g>
</g>
<g id="Layer_3" display="none">
	<g display="inline">
		<polygon points="86.2,342.2 89.7,364.5 190.9,348.9 162.3,341.4 		"/>
		<path d="M308.1,260l-0.2-1.3l46.3-167.9L306,77.5V49.3h-30.6l-1.2-7.8l-50.7,7.8h-19.9l-73-20.1l-5.5,20.1H74.2v23.1l-29,4.5
			l26,168.1l-17.9,64.8l20.9,5.8v24.8h200.5l-106.7,1l95.2,26.3l13.5,3.7l8.6-31H306v-9.3l12.7-2L308.1,260z M334.1,102.1l-28,101.7
			V94.4L334.1,102.1z M142.1,49.2l0.2,0.1L142.1,49.2L142.1,49.2z M90.5,65.6h199.2v204.9H90.5V65.6z M74.2,88.9v69L63.8,90.5
			L74.2,88.9z"/>
		<polygon points="142.1,49.2 142.1,49.3 142.3,49.3 		"/>
		<path d="M108.5,151.4c0,8.6,7,15.6,15.6,15.6h47c8.6,0,15.6-7,15.6-15.6v-47c0-8.6-7-15.6-15.6-15.6h-47c-8.6,0-15.6,7-15.6,15.6
			V151.4z M124,95.1h47c5.2,0,9.3,4.2,9.3,9.3v47c0,5.2-4.2,9.3-9.3,9.3h-47c-5.2,0-9.3-4.2-9.3-9.3v-47
			C114.7,99.3,118.9,95.1,124,95.1z"/>
		<path d="M193.7,104.4v47c0,8.6,7,15.6,15.6,15.6h47c8.6,0,15.6-7,15.6-15.6v-47c0-8.6-7-15.6-15.6-15.6h-47
			C200.7,88.8,193.7,95.8,193.7,104.4z M265.6,104.4v47c0,5.2-4.2,9.3-9.3,9.3h-47c-5.2,0-9.3-4.2-9.3-9.3v-47
			c0-5.2,4.2-9.3,9.3-9.3h47C261.4,95.1,265.6,99.3,265.6,104.4z"/>
		<path d="M186.6,187.6c0-8.6-7-15.6-15.6-15.6h-47c-8.6,0-15.6,7-15.6,15.6v47c0,8.6,7,15.6,15.6,15.6h47c8.6,0,15.6-7,15.6-15.6
			V187.6z M114.7,234.6v-47c0-5.2,4.2-9.3,9.3-9.3h47c5.2,0,9.3,4.2,9.3,9.3v47c0,5.2-4.2,9.3-9.3,9.3h-47
			C118.9,243.9,114.7,239.8,114.7,234.6z"/>
		<path d="M209.2,250.2h47c8.6,0,15.6-7,15.6-15.6v-47c0-8.6-7-15.6-15.6-15.6h-47c-8.6,0-15.6,7-15.6,15.6v47
			C193.7,243.2,200.7,250.2,209.2,250.2z M265.6,187.6v47c0,5.2-4.2,9.3-9.3,9.3h-47c-5.2,0-9.3-4.2-9.3-9.3v-47
			c0-5.2,4.2-9.3,9.3-9.3h47C261.4,178.3,265.6,182.5,265.6,187.6z"/>
	</g>
</g>
<g id="Layer_4" display="none">
	<g display="inline">
		<polygon points="297.3,207.6 361.5,321.2 279.7,321.2 279.7,204.9 		"/>
		<polygon points="67.6,321.2 67.6,43 126.6,163.1 126.6,321.2 		"/>
		<polygon points="149.4,321.2 149.4,184.2 257,201.2 257,321.2 		"/>
		<path d="M38.1,40.1c3.4,0,6.2,2.9,6.2,6.5v302H138l-8-14.6l-3.3-6.1l-1.8-3.3h1.8h6.2V47.3c0-3,2.3-5.4,5.2-5.4
			c2.9,0,5.2,2.4,5.2,5.4v277.5h6.2h1.8l-1.8,3.3l-3.3,6.1l-8,14.6h130.4l-8-14.6L257,328l-1.8-3.3h1.8h6.2V47.3
			c0-3,2.3-5.4,5.2-5.4c2.9,0,5.2,2.4,5.2,5.4v277.5h6.2h1.8l-1.8,3.3l-3.3,6.1l-8,14.6h93.1c3.4,0,6.2,2.9,6.2,6.5
			c0,3.6-2.8,6.5-6.2,6.5H31.9v-315C31.9,43,34.7,40.1,38.1,40.1z"/>
	</g>
</g>
<g id="Layer_5" display="none">
	<g display="inline">
		<path d="M246.2,359c-4.6,0-7.7-1.7-9.6-3.2c-3.3-2.7-5.1-6.8-5.1-11.4c0-1.7,0-4.7,0-8.7c0.1-8,0.1-20.1,0.1-34
			c0-15-5.7-21.5-8.2-23.7l-11.9-10.2l15.6-1.7c32.2-3.6,65-14.7,65-70.1c0-14.4-4.8-26.9-14.2-37.2l-2.9-3.2l1.6-4
			c1.4-3.5,5.3-15.4-0.1-32.2c-4.8,0.4-15.9,2.8-34,15.1l-2.6,1.8l-3-0.8c-11.6-3.2-24.4-4.9-37.2-5c-12.7,0.1-25.6,1.8-37.1,5
			l-3,0.8l-2.6-1.8c-18.1-12.2-29.1-14.7-34.1-15.1c-5.4,16.7-1.5,28.7-0.1,32.1l1.6,4l-2.9,3.2c-9.4,10.3-14.2,22.8-14.2,37.2
			c0,55.4,32.8,66.5,64.9,70.2l15.3,1.7l-11.6,10.2c-2.3,2-6.2,6.8-7.6,16.6l-0.5,3.7l-3.4,1.5c-8.3,3.7-36.9,13.7-54-15.7
			c-0.1-0.1-1.2-2.1-3.3-4.5c2.7,3.7,5.5,8.6,7.9,14.7l0.2,0.5c0.3,0.9,8.2,24.1,44.5,16.2l8.2-1.8l0,8.4c0,7,0.1,13.1,0.1,17.8
			c0,4,0.1,7,0.1,8.7c0,4.5-1.9,8.6-5.1,11.3c-2.4,2-6.8,4.2-13.6,2.9l-0.9-0.2C81.8,336.3,37.1,274.3,37.1,204.2
			c0-89.6,72.9-162.6,162.5-162.6c89.6,0,162.6,72.9,162.6,162.6c0,70.1-44.6,132-111.1,154.2l-0.9,0.2
			C248.8,358.9,247.4,359,246.2,359z M240.2,278c3.3,6.6,5.1,14.7,5.1,23.7c0,13.9-0.1,26.1-0.1,34.1c0,4,0,6.9,0,8.6
			c0,0.5,0.1,0.8,0.2,0.9c0.1,0,0.8,0.2,2,0c60.6-20.4,101.3-77.1,101.3-141.1c0-82.1-66.8-148.9-148.9-148.9
			c-82.1,0-148.9,66.8-148.9,148.9c0,64.1,40.7,120.7,101.3,141.1c1.2,0.2,1.9,0,2-0.1c0,0,0.2-0.3,0.2-0.8c0-1.7,0-4.6-0.1-8.6
			c0-2.8-0.1-6.1-0.1-9.8c-33.1,4-48.5-15-52.1-26.7c-5.8-14.6-13.7-18.8-13.7-18.9l-1-0.5c-3-2-10.9-7.5-8.6-14.8
			c2.1-6.6,10.2-7.2,13.6-7.2l0.4,0c19.1,1.3,28.9,18.8,29.4,19.6c9.5,16.2,23.8,14.7,33.3,11.3c0.8-3.9,2.1-7.5,3.7-10.8
			c-30.9-5.6-65.5-22.4-65.5-82.1c0-16.5,5.1-31,15.1-43.3c-2.2-7.7-4.7-23.1,2.9-42.2l1.2-3l3.1-1c2.6-0.8,17-4,46.1,15.1
			c12-3,24.7-4.6,37.7-4.7c13.1,0.1,25.8,1.6,37.8,4.7c29.2-19,43.5-15.9,46.1-15.1l3.1,1l1.2,3c7.6,19.1,5.2,34.5,2.9,42.2
			c10,12.3,15.1,26.8,15.1,43.3C305.8,255.7,271.1,272.4,240.2,278z"/>
	</g>
</g>
<g id="Layer_6" display="none">
	<g display="inline">
		<path fill="none" d="M199.3,232.8c-10.4-4.5-17.2-14.7-17.2-26.1c0-6.4,1.9-12.8,6.1-17.6c4.5-5.1,9.8-15.3,9.8-35
			c8.4,0,13.3-18.6,8.2-27.3c-3.3-5.7-4.3-12.3-2.2-18.5c2.5-7.2,4.3-16.3,1.9-25.7c-4.3-17.3-30.9-26.9-55.4-26.9
			c-20.5,0-39.7,6.7-43.3,21.2c-16.2,4-13.9,19-10,30.8c2.2,6.5,1,13.3-2.6,19.1c-5.4,8.7-0.5,27.4,7.9,27.4c0,19.7,5.3,29.9,9.8,35
			c4.2,4.8,6.1,11.2,6.1,17.6v0c0,11.4-6.8,21.6-17.2,26.1C66.2,248,31,266.5,31,273.3v43.2c0,15.7,12.7,28.4,28.4,28.4H149h64.4
			h27.7c15.7,0,28.4-12.7,28.4-28.4v-43.2C269.6,266.5,234.4,248,199.3,232.8z"/>
		<path d="M331.1,261.2c-0.3-0.2-0.5-0.4-1.1-0.8c-3-1.7-3.9-5-4-8.5c3.9-4.6,7.7-11.9,8.9-23.4c4.5-4.9,7-12.2,7-19.3
			c0-5-1.2-9.6-3.5-13.2c0,0,0-0.1-0.1-0.1c2.2-6.3,4.1-15,1.7-24.5c-4.8-19-28-27.6-48.9-27.6c-17.9,0-31.8,6.3-38.1,16.8
			c-4.8,2.7-7.5,6.4-9.1,9.4c-4.4,8.7-2.4,18.3,0.1,25.5c-0.1,0.2-0.2,0.3-0.3,0.5c-2.4,3.7-3.7,8.4-3.7,13.4c0,5,1.3,10,3.6,14.3
			c6.7,3.3,12.6,6.5,17.7,9.4c-0.8-3.3-1.3-7.1-1.3-12c-7.2,0-10.3-20.6,0-20.6c0-3-13.8-25.3,3-29.5c2.4-9.4,14.8-13.8,28.1-13.8
			c15.9,0,33.2,6.2,36,17.5c3.1,12.3-4.8,23.6-4.8,25.8c10,0,6.8,20.6-0.3,20.6c0,22.2-10.3,25.8-10.3,25.8v1.8
			c0,11.1,6.5,21.3,16.6,25.8c20.8,9.3,40.2,19.8,40.2,23.9v18c0,15.7-12.7,28.4-28.4,28.4h-43.6c0,4.9-1.4,9.4-3.7,13.3h47.3
			c23.1,0,41.7-18.7,41.7-41.7v-18C381.6,292.9,381.5,283,331.1,261.2z"/>
		<path d="M203.8,220.2c-0.4-0.3-0.9-0.6-1.8-1.1c-7.1-4-5.6-15-4.1-21.1c5-5.6,10.2-14.4,12.3-28.9c0.6-3.9,2.1-7.6,4.4-10.7
			c4.5-6,6.9-14.3,6.9-22.5c0-6.3-1.5-12-4.3-16.5c-0.6-1-1.3-2-2.1-2.8c3.5-9,7.4-22.5,3.7-37.2c-6.4-25.4-39.9-37-68.4-37
			c-25.9,0-45.6,9-53.5,24.1c-7,3.4-10.7,8.3-12.8,12.3c-6.3,12.3-2,27.1,1.8,37.3c-0.9,1-1.8,2.1-2.5,3.3
			c-2.9,4.6-4.5,10.4-4.5,16.8c0,8,2.4,16.2,6.8,22.2c2.3,3.2,3.9,6.9,4.5,10.8c2.2,14.7,7.5,23.7,12.6,29.2
			c1.5,6.2,2.8,16.9-4.1,20.8c-0.7,0.4-1.2,0.7-1.5,0.9c-79.3,33.5-79.6,47.8-79.6,53.4v43.2c0,23.1,18.7,41.7,41.7,41.7H149h64.4
			h27.7c23.1,0,41.7-18.7,41.7-41.7v-43.2C282.9,267.8,282.7,253.5,203.8,220.2z M269.6,316.5c0,15.7-12.7,28.4-28.4,28.4h-27.7H149
			H59.4c-15.7,0-28.4-12.7-28.4-28.4v-43.2c0-6.8,35.2-25.4,70.3-40.5c10.4-4.5,17.2-14.7,17.2-26.1v0c0-6.4-1.9-12.8-6.1-17.6
			c-4.5-5.1-9.8-15.3-9.8-35c-8.5,0-13.3-18.7-7.9-27.4c3.6-5.8,4.8-12.6,2.6-19.1c-3.9-11.8-6.2-26.7,10-30.8
			c3.6-14.5,22.8-21.2,43.3-21.2c24.6,0,51.1,9.6,55.4,26.9c2.4,9.5,0.5,18.6-1.9,25.7c-2.1,6.2-1.1,12.8,2.2,18.5
			c5.1,8.8,0.2,27.3-8.2,27.3c0,19.7-5.3,29.9-9.8,35c-4.2,4.8-6.1,11.2-6.1,17.6c0,11.4,6.8,21.6,17.2,26.1
			c35.1,15.2,70.3,33.7,70.3,40.5V316.5z"/>
	</g>
</g>
</svg>
