<?xml version="1.0" encoding="utf-8"?>
<!-- Generator: Adobe Illustrator 19.1.0, SVG Export Plug-In . SVG Version: 6.00 Build 0)  -->
<svg version="1.1" id="Layer_1" xmlns="http://www.w3.org/2000/svg" xmlns:xlink="http://www.w3.org/1999/xlink" x="0px" y="0px"
	 width="170.8px" height="44.5px" viewBox="0 0 170.8 44.5" style="enable-background:new 0 0 170.8 44.5;" xml:space="preserve">
<style type="text/css">
	.st0{fill:#FFFFFF;}
</style>
<g>
	<g>
		<g>
			<path class="st0" d="M24.6,23.9l0-0.5c3.3,0,6.6-3.8,6.7-3.9l0.4,0.3C31.5,20,28,23.8,24.6,23.9z"/>
		</g>
		<g>
			<path class="st0" d="M23.8,25.8c-0.3,0-0.6,0-0.9,0l0-0.5c5.7,0.6,10.2-5.1,10.3-5.2l0.4,0.3C33.5,20.7,29.4,25.8,23.8,25.8z"/>
		</g>
		<g>
			<path class="st0" d="M23.1,27.8c-0.6,0-1.2,0-1.8-0.1l0.1-0.5c8.2,1.2,13.9-6.4,13.9-6.5l0.4,0.3C35.7,21.1,30.6,27.8,23.1,27.8z
				"/>
		</g>
		<g>
			<path class="st0" d="M22.4,29.9c-0.9,0-1.8-0.1-2.7-0.2l0.1-0.5c10.7,1.7,17.5-7.8,17.5-7.8l0.4,0.3
				C37.7,21.7,31.8,29.9,22.4,29.9z"/>
		</g>
		<g>
			<path class="st0" d="M21.8,31.9c-1.2,0-2.4-0.1-3.6-0.3l0.1-0.5c13.2,2.4,21.1-9.1,21.2-9.2l0.4,0.3
				C39.7,22.3,33.1,31.9,21.8,31.9z"/>
		</g>
		<g>
			<path class="st0" d="M21.1,33.9c-1.5,0-3-0.1-4.6-0.4l0.1-0.5C32.3,36,41.4,22.6,41.4,22.5l0.4,0.3
				C41.8,22.9,34.2,33.9,21.1,33.9z"/>
		</g>
		<g>
			<path class="st0" d="M20.4,36c-1.7,0-3.6-0.2-5.5-0.5l0.1-0.5c18.1,3.5,28.4-11.7,28.5-11.9l0.4,0.3C43.8,23.5,35.4,36,20.4,36z"
				/>
		</g>
		<g>
			<path class="st0" d="M19.8,38c-2,0-4.2-0.2-6.4-0.7l0.1-0.5c20.6,4.2,32-13,32.1-13.2l0.4,0.3C45.9,24.1,36.6,38,19.8,38z"/>
		</g>
		<g>
			<path class="st0" d="M19.1,40c-2.3,0-4.8-0.2-7.4-0.8l0.1-0.5c23.1,4.7,35.6-14.3,35.7-14.5l0.4,0.3C47.9,24.7,37.8,40,19.1,40z"
				/>
		</g>
		<g>
			<path class="st0" d="M18.5,42.1c-2.6,0-5.4-0.3-8.3-0.9l0.1-0.5c25.5,5.4,39.2-15.7,39.4-15.9l0.4,0.3
				C49.9,25.3,39,42.1,18.5,42.1z"/>
		</g>
		<g>
			<path class="st0" d="M17.8,44.1c-2.9,0-6-0.3-9.2-1l0.1-0.5c28,6,42.9-17,43-17.2l0.4,0.3C52,25.9,40.2,44.1,17.8,44.1z"/>
		</g>
	</g>
	<g>
		<g>
			<path class="st0" d="M29.2,18.2c-3.7,0-6.9-4-7-4.2l0.4-0.3c0,0,3.2,4,6.6,4c0,0,0,0,0,0L29.2,18.2
				C29.2,18.2,29.2,18.2,29.2,18.2z"/>
		</g>
		<g>
			<path class="st0" d="M29.7,20.1c-5.6,0-9.4-5.4-9.5-5.5l0.4-0.3c0,0.1,4.1,5.8,9.9,5.2l0.1,0.5C30.3,20.1,30,20.1,29.7,20.1z"/>
		</g>
		<g>
			<path class="st0" d="M30.1,22c-7.5,0-11.9-6.8-11.9-6.8l0.4-0.3c0,0.1,5,7.7,13.3,6.5l0.1,0.5C31.3,22,30.7,22,30.1,22z"/>
		</g>
		<g>
			<path class="st0" d="M30.5,24c-9.3,0-14.3-8.1-14.4-8.2l0.4-0.3c0.1,0.1,6,9.5,16.6,7.7l0.1,0.5C32.3,23.9,31.4,24,30.5,24z"/>
		</g>
		<g>
			<path class="st0" d="M30.9,25.9c-11,0-16.7-9.4-16.8-9.5l0.4-0.3c0.1,0.1,6.9,11.4,20,9l0.1,0.5C33.3,25.8,32.1,25.9,30.9,25.9z"
				/>
		</g>
		<g>
			<path class="st0" d="M31.3,27.9c-12.8,0-19.1-10.8-19.2-10.9l0.4-0.2c0.1,0.1,7.8,13.2,23.4,10.2l0.1,0.5
				C34.3,27.7,32.8,27.9,31.3,27.9z"/>
		</g>
		<g>
			<path class="st0" d="M31.7,29.8c-14.5,0-21.5-12.1-21.6-12.3l0.4-0.2c0.1,0.2,8.7,15.1,26.7,11.4l0.1,0.5
				C35.4,29.7,33.5,29.8,31.7,29.8z"/>
		</g>
		<g>
			<path class="st0" d="M32.1,31.8c-16.3,0-23.9-13.5-24-13.6l0.4-0.2c0.1,0.2,9.7,17,30.1,12.7l0.1,0.5
				C36.4,31.6,34.2,31.8,32.1,31.8z"/>
		</g>
		<g>
			<path class="st0" d="M32.5,33.8c-18,0-26.3-14.8-26.4-15l0.4-0.2c0.1,0.2,10.6,18.8,33.4,13.9l0.1,0.5
				C37.4,33.5,34.8,33.8,32.5,33.8z"/>
		</g>
		<g>
			<path class="st0" d="M32.9,35.7c-9,0-15.6-3.3-19.9-6.6c-6-4.5-8.9-9.8-8.9-9.8l0.4-0.2C4.6,19.3,16,39.8,41.3,34.3l0.1,0.5
				C38.3,35.4,35.5,35.7,32.9,35.7z"/>
		</g>
		<g>
			<path class="st0" d="M33.3,37.7C11.8,37.7,2.1,20.1,2,19.9l0.4-0.2c0.1,0.2,12.5,22.5,40.2,16.4l0.1,0.5
				C39.4,37.4,36.2,37.7,33.3,37.7z"/>
		</g>
		<g>
			<path class="st0" d="M33.7,39.7C10.5,39.7,0.1,20.7,0,20.5l0.4-0.2C0.6,20.5,13.8,44.7,44,38l0.1,0.5
				C40.4,39.3,36.9,39.7,33.7,39.7z"/>
		</g>
	</g>
	<g>
		<g>
			<path class="st0" d="M26.2,26.1l-0.5-0.1c0.4-3.3,2.7-5.9,2.8-6l0.4,0.3C28.9,20.4,26.6,23,26.2,26.1z"/>
		</g>
		<g>
			<path class="st0" d="M23.8,27.9c-0.4-6.4,4.6-9.9,4.6-9.9l0.3,0.4c0,0-4.8,3.4-4.4,9.5L23.8,27.9z"/>
		</g>
		<g>
			<path class="st0" d="M21.9,29.8C20.8,20.4,28.2,16,28.2,16l0.2,0.4c-0.1,0-7.2,4.3-6.1,13.3L21.9,29.8z"/>
		</g>
		<g>
			<path class="st0" d="M20,31.6c-1.9-12.4,8-17.6,8.1-17.6l0.2,0.4c-0.1,0-9.6,5.1-7.8,17.1L20,31.6z"/>
		</g>
		<g>
			<path class="st0" d="M18,33.5c-2.6-15.4,9.7-21.4,9.8-21.5l0.2,0.5C28,12.5,16,18.4,18.5,33.4L18,33.5z"/>
		</g>
		<g>
			<path class="st0" d="M16.1,35.3C12.8,16.9,27.5,10.1,27.7,10l0.2,0.5c-0.1,0.1-14.5,6.8-11.3,24.7L16.1,35.3z"/>
		</g>
		<g>
			<path class="st0" d="M14.2,37.1C10.1,15.8,27.3,8.1,27.5,8l0.2,0.5c-0.2,0.1-17,7.6-13,28.6L14.2,37.1z"/>
		</g>
		<g>
			<path class="st0" d="M12.3,39C7.5,14.6,27.1,6.1,27.3,6l0.2,0.5C27.3,6.5,8,14.9,12.8,38.9L12.3,39z"/>
		</g>
		<g>
			<path class="st0" d="M10.4,40.8C4.8,13.5,26.9,4.1,27.1,4l0.2,0.5c-0.2,0.1-21.9,9.3-16.5,36.2L10.4,40.8z"/>
		</g>
		<g>
			<path class="st0" d="M8.4,42.6C2.2,12.3,26.7,2.1,26.9,2l0.2,0.5C26.9,2.6,2.7,12.6,8.9,42.5L8.4,42.6z"/>
		</g>
		<g>
			<path class="st0" d="M6.5,44.5C2.9,27.1,8.5,15.9,14,9.6C19.8,2.8,26.7,0,26.7,0l0.2,0.5c-0.1,0-6.8,2.7-12.6,9.5
				C9,16.2,3.4,27.2,7,44.4L6.5,44.5z"/>
		</g>
	</g>
</g>
<g>
	<g id="XMLID_45_">
		<g>
			<rect x="25.2" y="0.2" class="st0" width="1.8" height="26.4"/>
		</g>
	</g>
	<g id="XMLID_44_">
		<g>
			<rect x="13.6" y="20" transform="matrix(0.5001 0.866 -0.866 0.5001 36.0009 3.9745)" class="st0" width="1.8" height="26.4"/>
		</g>
	</g>
	<g id="XMLID_43_">
		<g>
			
				<rect x="24.2" y="32.2" transform="matrix(0.8661 0.4999 -0.4999 0.8661 21.5621 -14.2937)" class="st0" width="26.4" height="1.8"/>
		</g>
	</g>
</g>
<g>
	<g>
		<g>
			<path class="st0" d="M75.8,18.7l15.6,15.8V19h1.2v18.4L77,21.6v15.3h-1.2V18.7z"/>
		</g>
	</g>
	<g>
		<g>
			<path class="st0" d="M105.6,22c-1.1-1.6-2.1-2.2-3.7-2.2c-2,0-3.5,1.5-3.5,3.4c0,1.5,0.8,2.2,3.3,3.4c2.5,1.1,2.8,1.3,3.7,1.9
				c1.3,0.8,2,2,2,3.4c0,2.9-2.6,5.3-5.8,5.3c-1.7,0-3.2-0.7-4.3-1.9c-0.5-0.6-0.7-0.9-1.1-2l1-0.5c0.5,1,0.6,1.2,1,1.7
				c0.8,0.9,2.1,1.5,3.4,1.5c2.5,0,4.6-1.9,4.6-4.2c0-1.2-0.6-2.1-1.8-2.8c-0.5-0.3-1.1-0.6-1.9-0.9c-1.8-0.9-2.8-1.3-3.5-1.8
				c-1.2-0.8-1.8-1.8-1.8-3.2c0-2.6,2-4.5,4.8-4.5c1.9,0,3.5,0.9,4.5,2.6L105.6,22z"/>
		</g>
	</g>
	<g>
		<g>
			<path class="st0" d="M123.7,18.6c5.3,0,9.7,4.2,9.7,9.3c0,5.1-4.4,9.3-9.7,9.3c-5.4,0-9.7-4.1-9.7-9.2
				C113.9,22.8,118.3,18.6,123.7,18.6z M123.7,34.7c3.8,0,6.9-3,6.9-6.8c0-3.8-3-6.8-6.9-6.8c-3.9,0-6.9,3-6.9,6.9
				C116.8,31.7,119.9,34.7,123.7,34.7z"/>
		</g>
	</g>
	<g>
		<g>
			<path class="st0" d="M136.9,18.5l13.5,11.9V19h2.8v17.9l-13.6-11.8v11.8h-2.8V18.5z"/>
		</g>
	</g>
	<g>
		<g>
			<path class="st0" d="M160.6,21.5v4.3h10.1v2.5h-10.1v6h10.3v2.6h-13.1V19h13.1v2.5H160.6z"/>
		</g>
	</g>
</g>
</svg>
