<?xml version="1.0" encoding="utf-8"?>
<!-- Generator: Adobe Illustrator 19.1.0, SVG Export Plug-In . SVG Version: 6.00 Build 0)  -->
<svg version="1.1" id="Layer_1" xmlns="http://www.w3.org/2000/svg" xmlns:xlink="http://www.w3.org/1999/xlink" x="0px" y="0px"
	 width="30px" height="30px" viewBox="0 0 30 30" style="enable-background:new 0 0 30 30;" xml:space="preserve">
<style type="text/css">
	.st0{fill:#04A64D;}
</style>
<g id="yaxQu9.tif">
	<g>
		<path class="st0" d="M1,2.9c2.5,2.5,5,5,7.4,7.5c-0.6,0.7-0.5,1.5,0,2.3c0.6,0.9,1.3,1.9,2,2.7c1.9,2.2,4,4.1,6.3,5.7
			c0.3,0.2,0.7,0.5,1.1,0.6c0.6,0.3,1.2,0.3,1.7-0.2c2.4,2.4,4.8,4.9,7.3,7.3c-0.2,0.1-0.5,0.3-0.7,0.4c-1.2,0.6-2.5,0.7-3.7,0.6
			c-2.7-0.2-5-1.2-7.3-2.6c-3.3-2-6-4.5-8.6-7.4c-1.6-1.8-3.1-3.6-4.3-5.7c-1-1.7-1.8-3.5-2.2-5.5c-0.3-1.7-0.3-3.4,0.3-5
			C0.7,3.6,0.9,3.3,1,2.9z"/>
		<path class="st0" d="M9.1,9.9c-2.5-2.5-5-5-7.5-7.6C1.7,2.2,1.9,2.1,2,2c0.5-0.5,1-1,1.6-1.6c0.6-0.6,1.2-0.6,1.8,0
			C7.3,2.3,9.2,4.2,11,6.1c0.6,0.6,0.6,1.2,0,1.9C10.4,8.6,9.8,9.2,9.1,9.9z"/>
		<path class="st0" d="M27.6,28.3c-2.4-2.5-4.9-4.9-7.3-7.3c0,0,0.1-0.1,0.1-0.2c0.6-0.6,1.2-1.2,1.8-1.8c0.5-0.5,1.2-0.5,1.7,0
			c1.8,1.8,3.7,3.7,5.5,5.5c0.7,0.7,0.6,1.3,0,1.9C28.9,27.1,28.2,27.7,27.6,28.3z"/>
	</g>
</g>
</svg>
