<?xml version="1.0" encoding="utf-8"?>
<!-- Generator: Adobe Illustrator 19.1.0, SVG Export Plug-In . SVG Version: 6.00 Build 0)  -->
<svg version="1.1" id="Layer_1" xmlns="http://www.w3.org/2000/svg" xmlns:xlink="http://www.w3.org/1999/xlink" x="0px" y="0px"
	 width="20px" height="20px" viewBox="0 0 20 20" style="enable-background:new 0 0 20 20;" xml:space="preserve">
<style type="text/css">
	.st0{fill:#EB242A;}
</style>
<g>
	<path class="st0" d="M17.1,2.9C13.2-1,6.8-1,2.9,2.9s-3.9,10.2,0,14.1c3.9,3.9,10.2,3.9,14.1,0S21,6.8,17.1,2.9z M14.5,13.1
		c0.2,0.2,0.2,0.5,0,0.6l-0.7,0.7c-0.2,0.2-0.5,0.2-0.6,0L10,11.4l-3.1,3.1c-0.2,0.2-0.5,0.2-0.6,0l-0.7-0.7c-0.2-0.2-0.2-0.5,0-0.6
		L8.6,10L5.5,6.9c-0.2-0.2-0.2-0.5,0-0.6l0.7-0.7c0.2-0.2,0.5-0.2,0.6,0L10,8.6l3.1-3.1c0.2-0.2,0.5-0.2,0.6,0l0.7,0.7
		c0.2,0.2,0.2,0.5,0,0.6L11.4,10L14.5,13.1z"/>
</g>
</svg>
